<svg width="150" height="150" viewBox="0 0 150 150" fill="none" xmlns="http://www.w3.org/2000/svg">
<rect x="2.5" y="2.5" width="145" height="145" rx="72.5" fill="black"/>
<path d="M33.7188 82L36.1051 67.4545H38.3778L35.9915 82H33.7188ZM27.206 78.392L27.5824 76.1193H38.946L38.5696 78.392H27.206ZM28.6051 82L30.9915 67.4545H33.2642L30.8778 82H28.6051ZM28.0369 73.3352L28.4205 71.0625H39.7841L39.4006 73.3352H28.0369ZM46.8704 82.3196C45.6488 82.3149 44.5977 82.0142 43.717 81.4176C42.841 80.821 42.1663 79.9569 41.6928 78.8253C41.2241 77.6937 40.9921 76.3324 40.9968 74.7415C40.9968 73.1553 41.2312 71.8035 41.6999 70.6861C42.1734 69.5687 42.8481 68.7187 43.7241 68.1364C44.6048 67.5492 45.6535 67.2557 46.8704 67.2557C48.0872 67.2557 49.1336 67.5492 50.0096 68.1364C50.8903 68.7235 51.5674 69.5758 52.0408 70.6932C52.5143 71.8059 52.7487 73.1553 52.744 74.7415C52.744 76.3371 52.5072 77.7008 52.0337 78.8324C51.565 79.964 50.8926 80.8281 50.0167 81.4247C49.1407 82.0213 48.092 82.3196 46.8704 82.3196ZM46.8704 79.7699C47.7037 79.7699 48.369 79.3509 48.8661 78.5128C49.3633 77.6747 49.6095 76.4176 49.6048 74.7415C49.6048 73.6383 49.4911 72.7197 49.2638 71.9858C49.0413 71.2519 48.7241 70.7003 48.3121 70.331C47.9049 69.9616 47.4244 69.777 46.8704 69.777C46.0418 69.777 45.3789 70.1913 44.8817 71.0199C44.3846 71.8485 44.1336 73.089 44.1289 74.7415C44.1289 75.8589 44.2402 76.7917 44.4627 77.5398C44.69 78.2831 45.0096 78.8419 45.4215 79.2159C45.8335 79.5852 46.3164 79.7699 46.8704 79.7699ZM60.6399 82.3196C59.4183 82.3149 58.3672 82.0142 57.4865 81.4176C56.6106 80.821 55.9358 79.9569 55.4624 78.8253C54.9936 77.6937 54.7616 76.3324 54.7663 74.7415C54.7663 73.1553 55.0007 71.8035 55.4695 70.6861C55.9429 69.5687 56.6177 68.7187 57.4936 68.1364C58.3743 67.5492 59.4231 67.2557 60.6399 67.2557C61.8568 67.2557 62.9032 67.5492 63.7791 68.1364C64.6598 68.7235 65.3369 69.5758 65.8104 70.6932C66.2839 71.8059 66.5182 73.1553 66.5135 74.7415C66.5135 76.3371 66.2768 77.7008 65.8033 78.8324C65.3345 79.964 64.6622 80.8281 63.7862 81.4247C62.9103 82.0213 61.8615 82.3196 60.6399 82.3196ZM60.6399 79.7699C61.4732 79.7699 62.1385 79.3509 62.6357 78.5128C63.1328 77.6747 63.379 76.4176 63.3743 74.7415C63.3743 73.6383 63.2607 72.7197 63.0334 71.9858C62.8108 71.2519 62.4936 70.7003 62.0817 70.331C61.6745 69.9616 61.1939 69.777 60.6399 69.777C59.8113 69.777 59.1484 70.1913 58.6513 71.0199C58.1541 71.8485 57.9032 73.089 57.8984 74.7415C57.8984 75.8589 58.0097 76.7917 58.2322 77.5398C58.4595 78.2831 58.7791 78.8419 59.1911 79.2159C59.603 79.5852 60.0859 79.7699 60.6399 79.7699ZM74.4094 82.3196C73.1879 82.3149 72.1367 82.0142 71.256 81.4176C70.3801 80.821 69.7054 79.9569 69.2319 78.8253C68.7631 77.6937 68.5311 76.3324 68.5359 74.7415C68.5359 73.1553 68.7702 71.8035 69.239 70.6861C69.7125 69.5687 70.3872 68.7187 71.2631 68.1364C72.1438 67.5492 73.1926 67.2557 74.4094 67.2557C75.6263 67.2557 76.6727 67.5492 77.5487 68.1364C78.4293 68.7235 79.1064 69.5758 79.5799 70.6932C80.0534 71.8059 80.2878 73.1553 80.283 74.7415C80.283 76.3371 80.0463 77.7008 79.5728 78.8324C79.104 79.964 78.4317 80.8281 77.5558 81.4247C76.6798 82.0213 75.631 82.3196 74.4094 82.3196ZM74.4094 79.7699C75.2428 79.7699 75.908 79.3509 76.4052 78.5128C76.9023 77.6747 77.1486 76.4176 77.1438 74.7415C77.1438 73.6383 77.0302 72.7197 76.8029 71.9858C76.5804 71.2519 76.2631 70.7003 75.8512 70.331C75.444 69.9616 74.9634 69.777 74.4094 69.777C73.5808 69.777 72.918 70.1913 72.4208 71.0199C71.9237 71.8485 71.6727 73.089 71.668 74.7415C71.668 75.8589 71.7792 76.7917 72.0018 77.5398C72.229 78.2831 72.5487 78.8419 72.9606 79.2159C73.3725 79.5852 73.8555 79.7699 74.4094 79.7699ZM88.179 82.3196C86.9574 82.3149 85.9063 82.0142 85.0256 81.4176C84.1496 80.821 83.4749 79.9569 83.0014 78.8253C82.5327 77.6937 82.3007 76.3324 82.3054 74.7415C82.3054 73.1553 82.5398 71.8035 83.0085 70.6861C83.482 69.5687 84.1567 68.7187 85.0327 68.1364C85.9134 67.5492 86.9621 67.2557 88.179 67.2557C89.3958 67.2557 90.4422 67.5492 91.3182 68.1364C92.1989 68.7235 92.8759 69.5758 93.3494 70.6932C93.8229 71.8059 94.0573 73.1553 94.0526 74.7415C94.0526 76.3371 93.8158 77.7008 93.3423 78.8324C92.8736 79.964 92.2012 80.8281 91.3253 81.4247C90.4493 82.0213 89.4006 82.3196 88.179 82.3196ZM88.179 79.7699C89.0123 79.7699 89.6776 79.3509 90.1747 78.5128C90.6719 77.6747 90.9181 76.4176 90.9134 74.7415C90.9134 73.6383 90.7997 72.7197 90.5724 71.9858C90.3499 71.2519 90.0327 70.7003 89.6207 70.331C89.2135 69.9616 88.733 69.777 88.179 69.777C87.3504 69.777 86.6875 70.1913 86.1903 71.0199C85.6932 71.8485 85.4422 73.089 85.4375 74.7415C85.4375 75.8589 85.5488 76.7917 85.7713 77.5398C85.9986 78.2831 86.3182 78.8419 86.7301 79.2159C87.142 79.5852 87.625 79.7699 88.179 79.7699ZM101.949 82.3196C100.727 82.3149 99.6758 82.0142 98.7951 81.4176C97.9192 80.821 97.2444 79.9569 96.771 78.8253C96.3022 77.6937 96.0702 76.3324 96.0749 74.7415C96.0749 73.1553 96.3093 71.8035 96.7781 70.6861C97.2515 69.5687 97.9263 68.7187 98.8022 68.1364C99.6829 67.5492 100.732 67.2557 101.949 67.2557C103.165 67.2557 104.212 67.5492 105.088 68.1364C105.968 68.7235 106.645 69.5758 107.119 70.6932C107.592 71.8059 107.827 73.1553 107.822 74.7415C107.822 76.3371 107.585 77.7008 107.112 78.8324C106.643 79.964 105.971 80.8281 105.095 81.4247C104.219 82.0213 103.17 82.3196 101.949 82.3196ZM101.949 79.7699C102.782 79.7699 103.447 79.3509 103.944 78.5128C104.441 77.6747 104.688 76.4176 104.683 74.7415C104.683 73.6383 104.569 72.7197 104.342 71.9858C104.119 71.2519 103.802 70.7003 103.39 70.331C102.983 69.9616 102.502 69.777 101.949 69.777C101.12 69.777 100.457 70.1913 99.9599 71.0199C99.4627 71.8485 99.2118 73.089 99.207 74.7415C99.207 75.8589 99.3183 76.7917 99.5408 77.5398C99.7681 78.2831 100.088 78.8419 100.5 79.2159C100.912 79.5852 101.395 79.7699 101.949 79.7699ZM115.718 82.3196C114.496 82.3149 113.445 82.0142 112.565 81.4176C111.689 80.821 111.014 79.9569 110.54 78.8253C110.072 77.6937 109.84 76.3324 109.844 74.7415C109.844 73.1553 110.079 71.8035 110.548 70.6861C111.021 69.5687 111.696 68.7187 112.572 68.1364C113.452 67.5492 114.501 67.2557 115.718 67.2557C116.935 67.2557 117.981 67.5492 118.857 68.1364C119.738 68.7235 120.415 69.5758 120.888 70.6932C121.362 71.8059 121.596 73.1553 121.592 74.7415C121.592 76.3371 121.355 77.7008 120.881 78.8324C120.413 79.964 119.74 80.8281 118.864 81.4247C117.988 82.0213 116.94 82.3196 115.718 82.3196ZM115.718 79.7699C116.551 79.7699 117.217 79.3509 117.714 78.5128C118.211 77.6747 118.457 76.4176 118.452 74.7415C118.452 73.6383 118.339 72.7197 118.112 71.9858C117.889 71.2519 117.572 70.7003 117.16 70.331C116.753 69.9616 116.272 69.777 115.718 69.777C114.889 69.777 114.227 70.1913 113.729 71.0199C113.232 71.8485 112.981 73.089 112.977 74.7415C112.977 75.8589 113.088 76.7917 113.31 77.5398C113.538 78.2831 113.857 78.8419 114.269 79.2159C114.681 79.5852 115.164 79.7699 115.718 79.7699Z" fill="white"/>
<rect x="2.5" y="2.5" width="145" height="145" rx="72.5" stroke="black" stroke-width="5"/>
</svg>
