<svg width="150" height="150" viewBox="0 0 150 150" fill="none" xmlns="http://www.w3.org/2000/svg">
<rect x="2.5" y="2.5" width="145" height="145" rx="72.5" fill="#024BA0"/>
<path d="M37.2188 82L39.6051 67.4545H41.8778L39.4915 82H37.2188ZM30.706 78.392L31.0824 76.1193H42.446L42.0696 78.392H30.706ZM32.1051 82L34.4915 67.4545H36.7642L34.3778 82H32.1051ZM31.5369 73.3352L31.9205 71.0625H43.2841L42.9006 73.3352H31.5369ZM50.3704 82.3196C49.1488 82.3149 48.0977 82.0142 47.217 81.4176C46.341 80.821 45.6663 79.9569 45.1928 78.8253C44.7241 77.6937 44.4921 76.3324 44.4968 74.7415C44.4968 73.1553 44.7312 71.8035 45.1999 70.6861C45.6734 69.5687 46.3481 68.7187 47.2241 68.1364C48.1048 67.5492 49.1535 67.2557 50.3704 67.2557C51.5872 67.2557 52.6336 67.5492 53.5096 68.1364C54.3903 68.7235 55.0674 69.5758 55.5408 70.6932C56.0143 71.8059 56.2487 73.1553 56.244 74.7415C56.244 76.3371 56.0072 77.7008 55.5337 78.8324C55.065 79.964 54.3926 80.8281 53.5167 81.4247C52.6407 82.0213 51.592 82.3196 50.3704 82.3196ZM50.3704 79.7699C51.2037 79.7699 51.869 79.3509 52.3661 78.5128C52.8633 77.6747 53.1095 76.4176 53.1048 74.7415C53.1048 73.6383 52.9911 72.7197 52.7638 71.9858C52.5413 71.2519 52.2241 70.7003 51.8121 70.331C51.4049 69.9616 50.9244 69.777 50.3704 69.777C49.5418 69.777 48.8789 70.1913 48.3817 71.0199C47.8846 71.8485 47.6336 73.089 47.6289 74.7415C47.6289 75.8589 47.7402 76.7917 47.9627 77.5398C48.19 78.2831 48.5096 78.8419 48.9215 79.2159C49.3335 79.5852 49.8164 79.7699 50.3704 79.7699ZM64.7649 67.4545V82H61.6896V70.3736H61.6044L58.2734 72.4616V69.7344L61.8743 67.4545H64.7649ZM68.0018 79.4432V77.0213L74.0742 67.4545H76.1623V70.8068H74.9265L71.0984 76.8651V76.9787H79.7276V79.4432H68.0018ZM74.9833 82V78.7045L75.0401 77.6321V67.4545H77.9237V82H74.9833ZM81.8619 82V67.4545H84.8874V72.9233H84.9798C85.1123 72.6297 85.3041 72.3314 85.555 72.0284C85.8107 71.7206 86.1422 71.465 86.5494 71.2614C86.9613 71.053 87.4727 70.9489 88.0835 70.9489C88.8789 70.9489 89.6128 71.1572 90.2852 71.5739C90.9575 71.9858 91.4949 72.6084 91.8974 73.4418C92.2998 74.2704 92.5011 75.3097 92.5011 76.5597C92.5011 77.7765 92.3046 78.804 91.9116 79.642C91.5233 80.4754 90.993 81.1075 90.3207 81.5384C89.6531 81.9645 88.9049 82.1776 88.0763 82.1776C87.4892 82.1776 86.9897 82.0805 86.5778 81.8864C86.1706 81.6922 85.8368 81.4484 85.5763 81.1548C85.3159 80.8565 85.1171 80.5559 84.9798 80.2528H84.8448V82H81.8619ZM84.8235 76.5455C84.8235 77.1941 84.9135 77.7599 85.0934 78.2429C85.2733 78.7259 85.5337 79.1023 85.8746 79.3722C86.2156 79.6373 86.6299 79.7699 87.1175 79.7699C87.61 79.7699 88.0266 79.6349 88.3675 79.3651C88.7085 79.0904 88.9665 78.7116 89.1417 78.2287C89.3216 77.741 89.4116 77.1799 89.4116 76.5455C89.4116 75.9157 89.324 75.3617 89.1488 74.8835C88.9736 74.4053 88.7156 74.0312 88.3746 73.7614C88.0337 73.4915 87.6147 73.3565 87.1175 73.3565C86.6251 73.3565 86.2085 73.4867 85.8675 73.7472C85.5314 74.0076 85.2733 74.3769 85.0934 74.8551C84.9135 75.3333 84.8235 75.8968 84.8235 76.5455ZM97.6307 82.206C96.9347 82.206 96.3144 82.0852 95.7699 81.8438C95.2254 81.5975 94.7945 81.2353 94.4773 80.7571C94.1648 80.2741 94.0085 79.6728 94.0085 78.9531C94.0085 78.3471 94.1198 77.8381 94.3423 77.4261C94.5649 77.0142 94.8679 76.6828 95.2514 76.4318C95.6349 76.1809 96.0705 75.9915 96.5582 75.8636C97.0507 75.7358 97.5668 75.6458 98.1065 75.5938C98.741 75.5275 99.2524 75.4659 99.6406 75.4091C100.029 75.3475 100.311 75.2576 100.486 75.1392C100.661 75.0208 100.749 74.8456 100.749 74.6136V74.571C100.749 74.1212 100.607 73.7732 100.322 73.527C100.043 73.2808 99.6454 73.1577 99.1293 73.1577C98.5848 73.1577 98.1515 73.2784 97.8295 73.5199C97.5076 73.7566 97.2945 74.0549 97.1903 74.4148L94.392 74.1875C94.5341 73.5246 94.8134 72.9517 95.2301 72.4688C95.6468 71.9811 96.1842 71.607 96.8423 71.3466C97.5052 71.0814 98.2723 70.9489 99.1435 70.9489C99.7495 70.9489 100.33 71.0199 100.884 71.1619C101.442 71.304 101.937 71.5241 102.368 71.8224C102.804 72.1207 103.147 72.5043 103.398 72.973C103.649 73.437 103.774 73.9934 103.774 74.642V82H100.905V80.4872H100.82C100.644 80.8281 100.41 81.1288 100.116 81.3892C99.8229 81.6449 99.4702 81.8461 99.0582 81.9929C98.6463 82.1349 98.1705 82.206 97.6307 82.206ZM98.4972 80.1179C98.9422 80.1179 99.3352 80.0303 99.6761 79.8551C100.017 79.6752 100.285 79.4337 100.479 79.1307C100.673 78.8277 100.77 78.4844 100.77 78.1009V76.9432C100.675 77.0047 100.545 77.0616 100.379 77.1136C100.218 77.161 100.036 77.206 99.8324 77.2486C99.6288 77.2865 99.4252 77.322 99.2216 77.3551C99.018 77.3835 98.8333 77.4096 98.6676 77.4332C98.3125 77.4853 98.0024 77.5682 97.7372 77.6818C97.4721 77.7955 97.2661 77.9493 97.1193 78.1435C96.9725 78.3329 96.8991 78.5696 96.8991 78.8537C96.8991 79.2656 97.0483 79.5805 97.3466 79.7983C97.6496 80.0114 98.0331 80.1179 98.4972 80.1179ZM111.796 82.3196C110.575 82.3149 109.523 82.0142 108.643 81.4176C107.767 80.821 107.092 79.9569 106.619 78.8253C106.15 77.6937 105.918 76.3324 105.923 74.7415C105.923 73.1553 106.157 71.8035 106.626 70.6861C107.099 69.5687 107.774 68.7187 108.65 68.1364C109.531 67.5492 110.579 67.2557 111.796 67.2557C113.013 67.2557 114.059 67.5492 114.935 68.1364C115.816 68.7235 116.493 69.5758 116.967 70.6932C117.44 71.8059 117.674 73.1553 117.67 74.7415C117.67 76.3371 117.433 77.7008 116.96 78.8324C116.491 79.964 115.818 80.8281 114.942 81.4247C114.067 82.0213 113.018 82.3196 111.796 82.3196ZM111.796 79.7699C112.629 79.7699 113.295 79.3509 113.792 78.5128C114.289 77.6747 114.535 76.4176 114.531 74.7415C114.531 73.6383 114.417 72.7197 114.19 71.9858C113.967 71.2519 113.65 70.7003 113.238 70.331C112.831 69.9616 112.35 69.777 111.796 69.777C110.968 69.777 110.305 70.1913 109.808 71.0199C109.31 71.8485 109.059 73.089 109.055 74.7415C109.055 75.8589 109.166 76.7917 109.388 77.5398C109.616 78.2831 109.935 78.8419 110.347 79.2159C110.759 79.5852 111.242 79.7699 111.796 79.7699Z" fill="white"/>
<rect x="2.5" y="2.5" width="145" height="145" rx="72.5" stroke="black" stroke-width="5"/>
</svg>
