<svg width="36" height="35" viewBox="0 0 36 35" fill="none" xmlns="http://www.w3.org/2000/svg">
<rect opacity="0.8" x="1.94429" y="1.36958" width="32.0482" height="32.0482" rx="16.0241" fill="#FF5527" stroke="black" stroke-width="2.73917"/>
<path fill-rule="evenodd" clip-rule="evenodd" d="M13.2928 8.38856C12.5882 8.48077 12.2159 8.65039 11.9498 8.91048C11.6845 9.17143 11.5114 9.53677 11.4165 10.2266C11.3191 10.9372 11.3174 11.8784 11.3174 13.2276V20.6822C11.6616 20.4466 12.0438 20.2721 12.4473 20.1664C12.9066 20.0455 13.4424 20.0455 14.2279 20.0464H25.2351V13.2284C25.2351 11.8784 25.2333 10.9372 25.1359 10.2266C25.0411 9.53677 24.868 9.17143 24.6027 8.91048C24.3365 8.65039 23.9642 8.48077 23.2596 8.38856C22.5342 8.29288 21.5739 8.29114 20.196 8.29114H16.3565C14.9786 8.29114 14.0183 8.29288 13.2928 8.38856ZM13.7173 12.2881C13.7173 11.8984 14.0392 11.5827 14.4367 11.5827H22.1158C22.3045 11.5811 22.4862 11.6543 22.621 11.7864C22.7559 11.9184 22.8329 12.0985 22.8352 12.2873C22.8331 12.4761 22.7562 12.6565 22.6213 12.7887C22.4865 12.921 22.3047 12.9943 22.1158 12.9927H14.4367C14.248 12.9943 14.0663 12.9211 13.9314 12.789C13.7966 12.657 13.7196 12.4769 13.7173 12.2881ZM14.4367 14.8742C14.248 14.8726 14.0663 14.9458 13.9314 15.0779C13.7966 15.21 13.7196 15.3901 13.7173 15.5788C13.7173 15.9685 14.0392 16.2843 14.4367 16.2843H19.2357C19.4246 16.2861 19.6065 16.213 19.7415 16.0809C19.8765 15.9488 19.9536 15.7685 19.9559 15.5797C19.9539 15.3906 19.8768 15.2102 19.7418 15.0779C19.6067 14.9456 19.4247 14.8724 19.2357 14.8742H14.4367Z" fill="white"/>
<path d="M14.3384 21.4564H25.2351C25.2325 22.4394 25.2168 23.1735 25.1368 23.7528C25.042 24.4426 24.8689 24.808 24.6036 25.0689C24.3374 25.329 23.9651 25.4986 23.2605 25.5908C22.5351 25.6865 21.5748 25.6883 20.1969 25.6883H16.3565C14.9786 25.6883 14.0183 25.6865 13.2929 25.5917C12.5883 25.4986 12.216 25.329 11.9498 25.0689C11.6845 24.808 11.5114 24.4426 11.4166 23.7528C11.3809 23.4919 11.3574 23.1987 11.3435 22.8656C11.463 22.5399 11.6597 22.2481 11.9169 22.0152C12.174 21.7824 12.4838 21.6154 12.8197 21.5286C13.0719 21.4625 13.3998 21.4564 14.3384 21.4564Z" fill="white"/>
</svg>
