<svg width="150" height="70" viewBox="0 0 150 70" fill="none" xmlns="http://www.w3.org/2000/svg">
<rect x="5" y="5" width="140" height="60" rx="30" fill="#024BA0" stroke="black" stroke-width="10"/>
<path d="M49.085 39.3311C49.085 38.999 49.0361 38.7012 48.9385 38.4375C48.8408 38.1641 48.6602 37.9102 48.3965 37.6758C48.1328 37.4414 47.752 37.207 47.2539 36.9727C46.7656 36.7285 46.1211 36.4746 45.3203 36.2109C44.3828 35.8984 43.4795 35.5469 42.6104 35.1562C41.7412 34.7559 40.9648 34.292 40.2812 33.7646C39.5977 33.2275 39.0557 32.6025 38.6553 31.8896C38.2549 31.167 38.0547 30.3271 38.0547 29.3701C38.0547 28.4521 38.2598 27.627 38.6699 26.8945C39.0801 26.1523 39.6514 25.5225 40.3838 25.0049C41.126 24.4775 41.9951 24.0771 42.9912 23.8037C43.9873 23.5205 45.0762 23.3789 46.2578 23.3789C47.8203 23.3789 49.1973 23.6523 50.3887 24.1992C51.5898 24.7363 52.5273 25.5029 53.2012 26.499C53.8848 27.4854 54.2266 28.6523 54.2266 30H49.1143C49.1143 29.4629 49.002 28.9893 48.7773 28.5791C48.5625 28.1689 48.2354 27.8467 47.7959 27.6123C47.3564 27.3779 46.8047 27.2607 46.1406 27.2607C45.4961 27.2607 44.9541 27.3584 44.5146 27.5537C44.0752 27.749 43.7432 28.0127 43.5186 28.3447C43.2939 28.667 43.1816 29.0234 43.1816 29.4141C43.1816 29.7363 43.2695 30.0293 43.4453 30.293C43.6309 30.5469 43.8896 30.7861 44.2217 31.0107C44.5635 31.2354 44.9736 31.4502 45.4521 31.6553C45.9404 31.8604 46.4873 32.0605 47.0928 32.2559C48.2256 32.6172 49.2314 33.0225 50.1104 33.4717C50.999 33.9111 51.7461 34.4141 52.3516 34.9805C52.9668 35.5371 53.4307 36.1719 53.7432 36.8848C54.0654 37.5977 54.2266 38.4033 54.2266 39.3018C54.2266 40.2588 54.041 41.1084 53.6699 41.8506C53.2988 42.5928 52.7666 43.2227 52.0732 43.7402C51.3799 44.248 50.5498 44.6338 49.583 44.8975C48.6162 45.1611 47.5371 45.293 46.3457 45.293C45.252 45.293 44.1729 45.1562 43.1084 44.8828C42.0537 44.5996 41.0967 44.1699 40.2373 43.5938C39.3779 43.0078 38.6895 42.2607 38.1719 41.3525C37.6641 40.4346 37.4102 39.3457 37.4102 38.0859H42.5664C42.5664 38.7109 42.6494 39.2383 42.8154 39.668C42.9814 40.0977 43.2256 40.4443 43.5479 40.708C43.8701 40.9619 44.2656 41.1475 44.7344 41.2646C45.2031 41.3721 45.7402 41.4258 46.3457 41.4258C47 41.4258 47.5273 41.333 47.9277 41.1475C48.3281 40.9521 48.6211 40.6982 48.8066 40.3857C48.9922 40.0635 49.085 39.7119 49.085 39.3311ZM71.5557 41.0449V45H60.1885V41.0449H71.5557ZM62.0195 23.6719V45H56.8779V23.6719H62.0195ZM70.0908 32.1387V35.9619H60.1885V32.1387H70.0908ZM71.5996 23.6719V27.6416H60.1885V23.6719H71.5996ZM91.4775 23.6719V45H86.3506L78.8066 31.7285V45H73.665V23.6719H78.8066L86.3506 36.9434V23.6719H91.4775ZM101.658 45H96.9268L96.9561 41.0449H101.658C102.635 41.0449 103.46 40.8105 104.134 40.3418C104.817 39.873 105.335 39.1748 105.687 38.2471C106.048 37.3096 106.229 36.1572 106.229 34.79V33.8672C106.229 32.8418 106.126 31.9434 105.921 31.1719C105.726 30.3906 105.433 29.7412 105.042 29.2236C104.651 28.6963 104.163 28.3008 103.577 28.0371C103.001 27.7734 102.337 27.6416 101.585 27.6416H96.8389V23.6719H101.585C103.03 23.6719 104.354 23.9209 105.555 24.4189C106.766 24.9072 107.811 25.6104 108.689 26.5283C109.578 27.4365 110.262 28.5156 110.74 29.7656C111.229 31.0059 111.473 32.3828 111.473 33.8965V34.79C111.473 36.2939 111.229 37.6709 110.74 38.9209C110.262 40.1709 109.583 41.25 108.704 42.1582C107.825 43.0664 106.785 43.7695 105.584 44.2676C104.393 44.7559 103.084 45 101.658 45ZM99.8711 23.6719V45H94.7295V23.6719H99.8711Z" fill="white"/>
</svg>
