<svg width="1280" height="800" viewBox="0 0 1280 800" fill="none" xmlns="http://www.w3.org/2000/svg">
<rect width="1280" height="800" rx="50" fill="white"/>
<rect x="29" y="47" width="1221" height="706" rx="45" fill="white" stroke="black" stroke-width="10"/>
<path d="M588.921 77.1543L583.721 94H578.198L586.035 72.6719H589.536L588.921 77.1543ZM593.228 94L588.013 77.1543L587.339 72.6719H590.884L598.765 94H593.228ZM593.022 86.0459V90.0156H582.08V86.0459H593.022ZM614.424 90.0449V94H603.643V90.0449H614.424ZM605.474 72.6719V94H600.332V72.6719H605.474ZM630.684 90.0449V94H619.902V90.0449H630.684ZM621.733 72.6719V94H616.592V72.6719H621.733ZM654.414 90.0449V94H643.633V90.0449H654.414ZM645.464 72.6719V94H640.322V72.6719H645.464ZM662.046 72.6719V94H656.919V72.6719H662.046ZM676.65 88.3311C676.65 87.999 676.602 87.7012 676.504 87.4375C676.406 87.1641 676.226 86.9102 675.962 86.6758C675.698 86.4414 675.317 86.207 674.819 85.9727C674.331 85.7285 673.687 85.4746 672.886 85.2109C671.948 84.8984 671.045 84.5469 670.176 84.1562C669.307 83.7559 668.53 83.292 667.847 82.7646C667.163 82.2275 666.621 81.6025 666.221 80.8896C665.82 80.167 665.62 79.3271 665.62 78.3701C665.62 77.4521 665.825 76.627 666.235 75.8945C666.646 75.1523 667.217 74.5225 667.949 74.0049C668.691 73.4775 669.561 73.0771 670.557 72.8037C671.553 72.5205 672.642 72.3789 673.823 72.3789C675.386 72.3789 676.763 72.6523 677.954 73.1992C679.155 73.7363 680.093 74.5029 680.767 75.499C681.45 76.4854 681.792 77.6523 681.792 79H676.68C676.68 78.4629 676.567 77.9893 676.343 77.5791C676.128 77.1689 675.801 76.8467 675.361 76.6123C674.922 76.3779 674.37 76.2607 673.706 76.2607C673.062 76.2607 672.52 76.3584 672.08 76.5537C671.641 76.749 671.309 77.0127 671.084 77.3447C670.859 77.667 670.747 78.0234 670.747 78.4141C670.747 78.7363 670.835 79.0293 671.011 79.293C671.196 79.5469 671.455 79.7861 671.787 80.0107C672.129 80.2354 672.539 80.4502 673.018 80.6553C673.506 80.8604 674.053 81.0605 674.658 81.2559C675.791 81.6172 676.797 82.0225 677.676 82.4717C678.564 82.9111 679.312 83.4141 679.917 83.9805C680.532 84.5371 680.996 85.1719 681.309 85.8848C681.631 86.5977 681.792 87.4033 681.792 88.3018C681.792 89.2588 681.606 90.1084 681.235 90.8506C680.864 91.5928 680.332 92.2227 679.639 92.7402C678.945 93.248 678.115 93.6338 677.148 93.8975C676.182 94.1611 675.103 94.293 673.911 94.293C672.817 94.293 671.738 94.1562 670.674 93.8828C669.619 93.5996 668.662 93.1699 667.803 92.5938C666.943 92.0078 666.255 91.2607 665.737 90.3525C665.229 89.4346 664.976 88.3457 664.976 87.0859H670.132C670.132 87.7109 670.215 88.2383 670.381 88.668C670.547 89.0977 670.791 89.4443 671.113 89.708C671.436 89.9619 671.831 90.1475 672.3 90.2646C672.769 90.3721 673.306 90.4258 673.911 90.4258C674.565 90.4258 675.093 90.333 675.493 90.1475C675.894 89.9521 676.187 89.6982 676.372 89.3857C676.558 89.0635 676.65 88.7119 676.65 88.3311ZM694.771 72.6719V94H689.629V72.6719H694.771ZM701.187 72.6719V76.6416H683.359V72.6719H701.187Z" fill="black"/>
<rect x="49" y="153" width="589" height="114" fill="#024BA0"/>
<rect x="49" y="269" width="589" height="114" fill="#024BA0"/>
<rect x="49" y="385" width="589" height="114" fill="#024BA0"/>
<rect x="49" y="501" width="589" height="114" fill="#024BA0"/>
<rect x="49" y="617" width="589" height="114" fill="#024BA0"/>
<rect x="641" y="153" width="589" height="114" fill="#024BA0"/>
<rect x="641" y="269" width="589" height="114" fill="#024BA0"/>
<rect x="641" y="385" width="589" height="114" fill="#024BA0"/>
<rect x="641" y="501" width="589" height="114" fill="#024BA0"/>
<rect x="641" y="617" width="589" height="114" fill="#024BA0"/>
<path d="M297.965 128.77L294.498 140H290.816L296.041 125.781H298.375L297.965 128.77ZM300.836 140L297.359 128.77L296.91 125.781H299.273L304.527 140H300.836ZM300.699 134.697V137.344H293.404V134.697H300.699ZM313.443 135.186H316.861C316.816 136.175 316.549 137.048 316.061 137.803C315.572 138.558 314.895 139.147 314.029 139.57C313.17 139.987 312.154 140.195 310.982 140.195C310.032 140.195 309.182 140.036 308.434 139.717C307.691 139.398 307.06 138.939 306.539 138.34C306.025 137.741 305.631 137.015 305.357 136.162C305.09 135.309 304.957 134.349 304.957 133.281V132.51C304.957 131.442 305.097 130.482 305.377 129.629C305.663 128.77 306.067 128.04 306.588 127.441C307.115 126.836 307.747 126.374 308.482 126.055C309.218 125.736 310.035 125.576 310.934 125.576C312.171 125.576 313.215 125.798 314.068 126.24C314.921 126.683 315.582 127.292 316.051 128.066C316.52 128.835 316.796 129.71 316.881 130.693H313.463C313.45 130.16 313.359 129.714 313.189 129.355C313.02 128.991 312.753 128.717 312.389 128.535C312.024 128.353 311.539 128.262 310.934 128.262C310.51 128.262 310.143 128.34 309.83 128.496C309.518 128.652 309.257 128.9 309.049 129.238C308.84 129.577 308.684 130.016 308.58 130.557C308.482 131.09 308.434 131.735 308.434 132.49V133.281C308.434 134.036 308.479 134.681 308.57 135.215C308.661 135.749 308.808 136.185 309.01 136.523C309.212 136.862 309.472 137.113 309.791 137.275C310.117 137.432 310.514 137.51 310.982 137.51C311.503 137.51 311.943 137.428 312.301 137.266C312.659 137.096 312.936 136.842 313.131 136.504C313.326 136.159 313.43 135.719 313.443 135.186ZM325.074 125.781V140H321.646V125.781H325.074ZM329.352 125.781V128.428H317.467V125.781H329.352ZM334.449 125.781V140H331.031V125.781H334.449ZM342.242 136.65L345.201 125.781H349.039L344.244 140H341.764L342.242 136.65ZM339.557 125.781L342.516 136.65L343.014 140H340.504L335.738 125.781H339.557ZM353.727 125.781V140H350.309V125.781H353.727ZM362.73 125.781V140H359.303V125.781H362.73ZM367.008 125.781V128.428H355.123V125.781H367.008ZM372.105 125.781V140H368.688V125.781H372.105ZM384.303 137.363V140H376.725V137.363H384.303ZM377.945 125.781V140H374.518V125.781H377.945ZM383.326 131.426V133.975H376.725V131.426H383.326ZM384.332 125.781V128.428H376.725V125.781H384.332ZM393.033 136.221C393.033 135.999 393.001 135.801 392.936 135.625C392.87 135.443 392.75 135.273 392.574 135.117C392.398 134.961 392.145 134.805 391.812 134.648C391.487 134.486 391.057 134.316 390.523 134.141C389.898 133.932 389.296 133.698 388.717 133.438C388.137 133.171 387.62 132.861 387.164 132.51C386.708 132.152 386.347 131.735 386.08 131.26C385.813 130.778 385.68 130.218 385.68 129.58C385.68 128.968 385.816 128.418 386.09 127.93C386.363 127.435 386.744 127.015 387.232 126.67C387.727 126.318 388.307 126.051 388.971 125.869C389.635 125.68 390.361 125.586 391.148 125.586C392.19 125.586 393.108 125.768 393.902 126.133C394.703 126.491 395.328 127.002 395.777 127.666C396.233 128.324 396.461 129.102 396.461 130H393.053C393.053 129.642 392.978 129.326 392.828 129.053C392.685 128.779 392.467 128.564 392.174 128.408C391.881 128.252 391.513 128.174 391.07 128.174C390.641 128.174 390.279 128.239 389.986 128.369C389.693 128.499 389.472 128.675 389.322 128.896C389.173 129.111 389.098 129.349 389.098 129.609C389.098 129.824 389.156 130.02 389.273 130.195C389.397 130.365 389.57 130.524 389.791 130.674C390.019 130.824 390.292 130.967 390.611 131.104C390.937 131.24 391.301 131.374 391.705 131.504C392.46 131.745 393.131 132.015 393.717 132.314C394.309 132.607 394.807 132.943 395.211 133.32C395.621 133.691 395.93 134.115 396.139 134.59C396.354 135.065 396.461 135.602 396.461 136.201C396.461 136.839 396.337 137.406 396.09 137.9C395.842 138.395 395.488 138.815 395.025 139.16C394.563 139.499 394.01 139.756 393.365 139.932C392.721 140.107 392.001 140.195 391.207 140.195C390.478 140.195 389.758 140.104 389.049 139.922C388.346 139.733 387.708 139.447 387.135 139.062C386.562 138.672 386.103 138.174 385.758 137.568C385.419 136.956 385.25 136.23 385.25 135.391H388.688C388.688 135.807 388.743 136.159 388.854 136.445C388.964 136.732 389.127 136.963 389.342 137.139C389.557 137.308 389.82 137.432 390.133 137.51C390.445 137.581 390.803 137.617 391.207 137.617C391.643 137.617 391.995 137.555 392.262 137.432C392.529 137.301 392.724 137.132 392.848 136.924C392.971 136.709 393.033 136.475 393.033 136.221Z" fill="black"/>
<path d="M896.535 133.955H892.873L892.854 131.709H895.822C896.356 131.709 896.783 131.65 897.102 131.533C897.421 131.41 897.652 131.23 897.795 130.996C897.945 130.762 898.02 130.469 898.02 130.117C898.02 129.714 897.945 129.388 897.795 129.141C897.645 128.893 897.408 128.714 897.082 128.604C896.763 128.486 896.35 128.428 895.842 128.428H894.162V140H890.734V125.781H895.842C896.721 125.781 897.505 125.863 898.195 126.025C898.885 126.182 899.471 126.423 899.953 126.748C900.441 127.074 900.812 127.484 901.066 127.979C901.32 128.467 901.447 129.043 901.447 129.707C901.447 130.286 901.324 130.83 901.076 131.338C900.829 131.846 900.415 132.259 899.836 132.578C899.263 132.891 898.479 133.053 897.482 133.066L896.535 133.955ZM896.398 140H892.043L893.215 137.363H896.398C896.867 137.363 897.242 137.292 897.521 137.148C897.808 136.999 898.013 136.803 898.137 136.562C898.267 136.315 898.332 136.042 898.332 135.742C898.332 135.378 898.27 135.062 898.146 134.795C898.029 134.528 897.84 134.323 897.58 134.18C897.32 134.03 896.971 133.955 896.535 133.955H893.654L893.674 131.709H897.121L897.922 132.607C898.872 132.568 899.624 132.702 900.178 133.008C900.738 133.314 901.138 133.717 901.379 134.219C901.62 134.72 901.74 135.244 901.74 135.791C901.74 136.722 901.538 137.5 901.135 138.125C900.738 138.75 900.142 139.219 899.348 139.531C898.553 139.844 897.57 140 896.398 140ZM911.359 125.781H914.787V135.068C914.787 136.175 914.556 137.113 914.094 137.881C913.632 138.643 912.984 139.219 912.15 139.609C911.317 140 910.337 140.195 909.211 140.195C908.098 140.195 907.118 140 906.271 139.609C905.432 139.219 904.774 138.643 904.299 137.881C903.83 137.113 903.596 136.175 903.596 135.068V125.781H907.033V135.068C907.033 135.654 907.118 136.133 907.287 136.504C907.456 136.868 907.704 137.135 908.029 137.305C908.355 137.474 908.749 137.559 909.211 137.559C909.68 137.559 910.074 137.474 910.393 137.305C910.712 137.135 910.952 136.868 911.115 136.504C911.278 136.133 911.359 135.654 911.359 135.068V125.781ZM923.83 125.781V140H920.402V125.781H923.83ZM928.107 125.781V128.428H916.223V125.781H928.107ZM936.604 125.781V140H933.176V125.781H936.604ZM940.881 125.781V128.428H928.996V125.781H940.881ZM954.094 132.607V133.184C954.094 134.271 953.941 135.247 953.635 136.113C953.335 136.973 952.909 137.708 952.355 138.32C951.802 138.926 951.148 139.391 950.393 139.717C949.637 140.036 948.804 140.195 947.893 140.195C946.975 140.195 946.135 140.036 945.373 139.717C944.618 139.391 943.96 138.926 943.4 138.32C942.847 137.708 942.417 136.973 942.111 136.113C941.812 135.247 941.662 134.271 941.662 133.184V132.607C941.662 131.52 941.812 130.544 942.111 129.678C942.417 128.812 942.844 128.076 943.391 127.471C943.944 126.859 944.598 126.393 945.354 126.074C946.115 125.749 946.955 125.586 947.873 125.586C948.785 125.586 949.618 125.749 950.373 126.074C951.135 126.393 951.792 126.859 952.346 127.471C952.899 128.076 953.329 128.812 953.635 129.678C953.941 130.544 954.094 131.52 954.094 132.607ZM950.617 133.184V132.588C950.617 131.885 950.555 131.266 950.432 130.732C950.314 130.192 950.139 129.74 949.904 129.375C949.67 129.01 949.38 128.737 949.035 128.555C948.697 128.366 948.309 128.271 947.873 128.271C947.417 128.271 947.02 128.366 946.682 128.555C946.343 128.737 946.06 129.01 945.832 129.375C945.604 129.74 945.432 130.192 945.314 130.732C945.204 131.266 945.148 131.885 945.148 132.588V133.184C945.148 133.88 945.204 134.499 945.314 135.039C945.432 135.573 945.604 136.025 945.832 136.396C946.066 136.768 946.353 137.048 946.691 137.236C947.036 137.425 947.437 137.52 947.893 137.52C948.329 137.52 948.716 137.425 949.055 137.236C949.393 137.048 949.676 136.768 949.904 136.396C950.139 136.025 950.314 135.573 950.432 135.039C950.555 134.499 950.617 133.88 950.617 133.184ZM967.746 125.781V140H964.328L959.299 131.152V140H955.871V125.781H959.299L964.328 134.629V125.781H967.746ZM977.238 136.221C977.238 135.999 977.206 135.801 977.141 135.625C977.076 135.443 976.955 135.273 976.779 135.117C976.604 134.961 976.35 134.805 976.018 134.648C975.692 134.486 975.262 134.316 974.729 134.141C974.104 133.932 973.501 133.698 972.922 133.438C972.342 133.171 971.825 132.861 971.369 132.51C970.913 132.152 970.552 131.735 970.285 131.26C970.018 130.778 969.885 130.218 969.885 129.58C969.885 128.968 970.021 128.418 970.295 127.93C970.568 127.435 970.949 127.015 971.438 126.67C971.932 126.318 972.512 126.051 973.176 125.869C973.84 125.68 974.566 125.586 975.354 125.586C976.395 125.586 977.313 125.768 978.107 126.133C978.908 126.491 979.533 127.002 979.982 127.666C980.438 128.324 980.666 129.102 980.666 130H977.258C977.258 129.642 977.183 129.326 977.033 129.053C976.89 128.779 976.672 128.564 976.379 128.408C976.086 128.252 975.718 128.174 975.275 128.174C974.846 128.174 974.484 128.239 974.191 128.369C973.898 128.499 973.677 128.675 973.527 128.896C973.378 129.111 973.303 129.349 973.303 129.609C973.303 129.824 973.361 130.02 973.479 130.195C973.602 130.365 973.775 130.524 973.996 130.674C974.224 130.824 974.497 130.967 974.816 131.104C975.142 131.24 975.507 131.374 975.91 131.504C976.665 131.745 977.336 132.015 977.922 132.314C978.514 132.607 979.012 132.943 979.416 133.32C979.826 133.691 980.135 134.115 980.344 134.59C980.559 135.065 980.666 135.602 980.666 136.201C980.666 136.839 980.542 137.406 980.295 137.9C980.048 138.395 979.693 138.815 979.23 139.16C978.768 139.499 978.215 139.756 977.57 139.932C976.926 140.107 976.206 140.195 975.412 140.195C974.683 140.195 973.964 140.104 973.254 139.922C972.551 139.733 971.913 139.447 971.34 139.062C970.767 138.672 970.308 138.174 969.963 137.568C969.624 136.956 969.455 136.23 969.455 135.391H972.893C972.893 135.807 972.948 136.159 973.059 136.445C973.169 136.732 973.332 136.963 973.547 137.139C973.762 137.308 974.025 137.432 974.338 137.51C974.65 137.581 975.008 137.617 975.412 137.617C975.848 137.617 976.2 137.555 976.467 137.432C976.734 137.301 976.929 137.132 977.053 136.924C977.176 136.709 977.238 136.475 977.238 136.221Z" fill="black"/>
<path d="M320.602 202.781V217H317.174V202.781H320.602ZM324.879 202.781V205.428H312.994V202.781H324.879ZM336.119 214.363V217H328.541V214.363H336.119ZM329.762 202.781V217H326.334V202.781H329.762ZM335.143 208.426V210.975H328.541V208.426H335.143ZM336.148 202.781V205.428H328.541V202.781H336.148ZM340.504 202.781L342.828 207.508L345.152 202.781H349.059L345.094 209.832L349.166 217H345.221L342.828 212.186L340.436 217H336.48L340.562 209.832L336.588 202.781H340.504ZM357.184 202.781V217H353.756V202.781H357.184ZM361.461 202.781V205.428H349.576V202.781H361.461ZM374.674 209.607V210.184C374.674 211.271 374.521 212.247 374.215 213.113C373.915 213.973 373.489 214.708 372.936 215.32C372.382 215.926 371.728 216.391 370.973 216.717C370.217 217.036 369.384 217.195 368.473 217.195C367.555 217.195 366.715 217.036 365.953 216.717C365.198 216.391 364.54 215.926 363.98 215.32C363.427 214.708 362.997 213.973 362.691 213.113C362.392 212.247 362.242 211.271 362.242 210.184V209.607C362.242 208.52 362.392 207.544 362.691 206.678C362.997 205.812 363.424 205.076 363.971 204.471C364.524 203.859 365.178 203.393 365.934 203.074C366.695 202.749 367.535 202.586 368.453 202.586C369.365 202.586 370.198 202.749 370.953 203.074C371.715 203.393 372.372 203.859 372.926 204.471C373.479 205.076 373.909 205.812 374.215 206.678C374.521 207.544 374.674 208.52 374.674 209.607ZM371.197 210.184V209.588C371.197 208.885 371.135 208.266 371.012 207.732C370.895 207.192 370.719 206.74 370.484 206.375C370.25 206.01 369.96 205.737 369.615 205.555C369.277 205.366 368.889 205.271 368.453 205.271C367.997 205.271 367.6 205.366 367.262 205.555C366.923 205.737 366.64 206.01 366.412 206.375C366.184 206.74 366.012 207.192 365.895 207.732C365.784 208.266 365.729 208.885 365.729 209.588V210.184C365.729 210.88 365.784 211.499 365.895 212.039C366.012 212.573 366.184 213.025 366.412 213.396C366.646 213.768 366.933 214.048 367.271 214.236C367.617 214.425 368.017 214.52 368.473 214.52C368.909 214.52 369.296 214.425 369.635 214.236C369.973 214.048 370.257 213.768 370.484 213.396C370.719 213.025 370.895 212.573 371.012 212.039C371.135 211.499 371.197 210.88 371.197 210.184Z" fill="white"/>
<path d="M320.602 318.781V333H317.174V318.781H320.602ZM324.879 318.781V321.428H312.994V318.781H324.879ZM336.119 330.363V333H328.541V330.363H336.119ZM329.762 318.781V333H326.334V318.781H329.762ZM335.143 324.426V326.975H328.541V324.426H335.143ZM336.148 318.781V321.428H328.541V318.781H336.148ZM340.504 318.781L342.828 323.508L345.152 318.781H349.059L345.094 325.832L349.166 333H345.221L342.828 328.186L340.436 333H336.48L340.562 325.832L336.588 318.781H340.504ZM357.184 318.781V333H353.756V318.781H357.184ZM361.461 318.781V321.428H349.576V318.781H361.461ZM374.674 325.607V326.184C374.674 327.271 374.521 328.247 374.215 329.113C373.915 329.973 373.489 330.708 372.936 331.32C372.382 331.926 371.728 332.391 370.973 332.717C370.217 333.036 369.384 333.195 368.473 333.195C367.555 333.195 366.715 333.036 365.953 332.717C365.198 332.391 364.54 331.926 363.98 331.32C363.427 330.708 362.997 329.973 362.691 329.113C362.392 328.247 362.242 327.271 362.242 326.184V325.607C362.242 324.52 362.392 323.544 362.691 322.678C362.997 321.812 363.424 321.076 363.971 320.471C364.524 319.859 365.178 319.393 365.934 319.074C366.695 318.749 367.535 318.586 368.453 318.586C369.365 318.586 370.198 318.749 370.953 319.074C371.715 319.393 372.372 319.859 372.926 320.471C373.479 321.076 373.909 321.812 374.215 322.678C374.521 323.544 374.674 324.52 374.674 325.607ZM371.197 326.184V325.588C371.197 324.885 371.135 324.266 371.012 323.732C370.895 323.192 370.719 322.74 370.484 322.375C370.25 322.01 369.96 321.737 369.615 321.555C369.277 321.366 368.889 321.271 368.453 321.271C367.997 321.271 367.6 321.366 367.262 321.555C366.923 321.737 366.64 322.01 366.412 322.375C366.184 322.74 366.012 323.192 365.895 323.732C365.784 324.266 365.729 324.885 365.729 325.588V326.184C365.729 326.88 365.784 327.499 365.895 328.039C366.012 328.573 366.184 329.025 366.412 329.396C366.646 329.768 366.933 330.048 367.271 330.236C367.617 330.425 368.017 330.52 368.473 330.52C368.909 330.52 369.296 330.425 369.635 330.236C369.973 330.048 370.257 329.768 370.484 329.396C370.719 329.025 370.895 328.573 371.012 328.039C371.135 327.499 371.197 326.88 371.197 326.184Z" fill="white"/>
<path d="M320.602 434.781V449H317.174V434.781H320.602ZM324.879 434.781V437.428H312.994V434.781H324.879ZM336.119 446.363V449H328.541V446.363H336.119ZM329.762 434.781V449H326.334V434.781H329.762ZM335.143 440.426V442.975H328.541V440.426H335.143ZM336.148 434.781V437.428H328.541V434.781H336.148ZM340.504 434.781L342.828 439.508L345.152 434.781H349.059L345.094 441.832L349.166 449H345.221L342.828 444.186L340.436 449H336.48L340.562 441.832L336.588 434.781H340.504ZM357.184 434.781V449H353.756V434.781H357.184ZM361.461 434.781V437.428H349.576V434.781H361.461ZM374.674 441.607V442.184C374.674 443.271 374.521 444.247 374.215 445.113C373.915 445.973 373.489 446.708 372.936 447.32C372.382 447.926 371.728 448.391 370.973 448.717C370.217 449.036 369.384 449.195 368.473 449.195C367.555 449.195 366.715 449.036 365.953 448.717C365.198 448.391 364.54 447.926 363.98 447.32C363.427 446.708 362.997 445.973 362.691 445.113C362.392 444.247 362.242 443.271 362.242 442.184V441.607C362.242 440.52 362.392 439.544 362.691 438.678C362.997 437.812 363.424 437.076 363.971 436.471C364.524 435.859 365.178 435.393 365.934 435.074C366.695 434.749 367.535 434.586 368.453 434.586C369.365 434.586 370.198 434.749 370.953 435.074C371.715 435.393 372.372 435.859 372.926 436.471C373.479 437.076 373.909 437.812 374.215 438.678C374.521 439.544 374.674 440.52 374.674 441.607ZM371.197 442.184V441.588C371.197 440.885 371.135 440.266 371.012 439.732C370.895 439.192 370.719 438.74 370.484 438.375C370.25 438.01 369.96 437.737 369.615 437.555C369.277 437.366 368.889 437.271 368.453 437.271C367.997 437.271 367.6 437.366 367.262 437.555C366.923 437.737 366.64 438.01 366.412 438.375C366.184 438.74 366.012 439.192 365.895 439.732C365.784 440.266 365.729 440.885 365.729 441.588V442.184C365.729 442.88 365.784 443.499 365.895 444.039C366.012 444.573 366.184 445.025 366.412 445.396C366.646 445.768 366.933 446.048 367.271 446.236C367.617 446.425 368.017 446.52 368.473 446.52C368.909 446.52 369.296 446.425 369.635 446.236C369.973 446.048 370.257 445.768 370.484 445.396C370.719 445.025 370.895 444.573 371.012 444.039C371.135 443.499 371.197 442.88 371.197 442.184Z" fill="white"/>
<path d="M320.602 550.781V565H317.174V550.781H320.602ZM324.879 550.781V553.428H312.994V550.781H324.879ZM336.119 562.363V565H328.541V562.363H336.119ZM329.762 550.781V565H326.334V550.781H329.762ZM335.143 556.426V558.975H328.541V556.426H335.143ZM336.148 550.781V553.428H328.541V550.781H336.148ZM340.504 550.781L342.828 555.508L345.152 550.781H349.059L345.094 557.832L349.166 565H345.221L342.828 560.186L340.436 565H336.48L340.562 557.832L336.588 550.781H340.504ZM357.184 550.781V565H353.756V550.781H357.184ZM361.461 550.781V553.428H349.576V550.781H361.461ZM374.674 557.607V558.184C374.674 559.271 374.521 560.247 374.215 561.113C373.915 561.973 373.489 562.708 372.936 563.32C372.382 563.926 371.728 564.391 370.973 564.717C370.217 565.036 369.384 565.195 368.473 565.195C367.555 565.195 366.715 565.036 365.953 564.717C365.198 564.391 364.54 563.926 363.98 563.32C363.427 562.708 362.997 561.973 362.691 561.113C362.392 560.247 362.242 559.271 362.242 558.184V557.607C362.242 556.52 362.392 555.544 362.691 554.678C362.997 553.812 363.424 553.076 363.971 552.471C364.524 551.859 365.178 551.393 365.934 551.074C366.695 550.749 367.535 550.586 368.453 550.586C369.365 550.586 370.198 550.749 370.953 551.074C371.715 551.393 372.372 551.859 372.926 552.471C373.479 553.076 373.909 553.812 374.215 554.678C374.521 555.544 374.674 556.52 374.674 557.607ZM371.197 558.184V557.588C371.197 556.885 371.135 556.266 371.012 555.732C370.895 555.192 370.719 554.74 370.484 554.375C370.25 554.01 369.96 553.737 369.615 553.555C369.277 553.366 368.889 553.271 368.453 553.271C367.997 553.271 367.6 553.366 367.262 553.555C366.923 553.737 366.64 554.01 366.412 554.375C366.184 554.74 366.012 555.192 365.895 555.732C365.784 556.266 365.729 556.885 365.729 557.588V558.184C365.729 558.88 365.784 559.499 365.895 560.039C366.012 560.573 366.184 561.025 366.412 561.396C366.646 561.768 366.933 562.048 367.271 562.236C367.617 562.425 368.017 562.52 368.473 562.52C368.909 562.52 369.296 562.425 369.635 562.236C369.973 562.048 370.257 561.768 370.484 561.396C370.719 561.025 370.895 560.573 371.012 560.039C371.135 559.499 371.197 558.88 371.197 558.184Z" fill="white"/>
<path d="M320.602 666.781V681H317.174V666.781H320.602ZM324.879 666.781V669.428H312.994V666.781H324.879ZM336.119 678.363V681H328.541V678.363H336.119ZM329.762 666.781V681H326.334V666.781H329.762ZM335.143 672.426V674.975H328.541V672.426H335.143ZM336.148 666.781V669.428H328.541V666.781H336.148ZM340.504 666.781L342.828 671.508L345.152 666.781H349.059L345.094 673.832L349.166 681H345.221L342.828 676.186L340.436 681H336.48L340.562 673.832L336.588 666.781H340.504ZM357.184 666.781V681H353.756V666.781H357.184ZM361.461 666.781V669.428H349.576V666.781H361.461ZM374.674 673.607V674.184C374.674 675.271 374.521 676.247 374.215 677.113C373.915 677.973 373.489 678.708 372.936 679.32C372.382 679.926 371.728 680.391 370.973 680.717C370.217 681.036 369.384 681.195 368.473 681.195C367.555 681.195 366.715 681.036 365.953 680.717C365.198 680.391 364.54 679.926 363.98 679.32C363.427 678.708 362.997 677.973 362.691 677.113C362.392 676.247 362.242 675.271 362.242 674.184V673.607C362.242 672.52 362.392 671.544 362.691 670.678C362.997 669.812 363.424 669.076 363.971 668.471C364.524 667.859 365.178 667.393 365.934 667.074C366.695 666.749 367.535 666.586 368.453 666.586C369.365 666.586 370.198 666.749 370.953 667.074C371.715 667.393 372.372 667.859 372.926 668.471C373.479 669.076 373.909 669.812 374.215 670.678C374.521 671.544 374.674 672.52 374.674 673.607ZM371.197 674.184V673.588C371.197 672.885 371.135 672.266 371.012 671.732C370.895 671.192 370.719 670.74 370.484 670.375C370.25 670.01 369.96 669.737 369.615 669.555C369.277 669.366 368.889 669.271 368.453 669.271C367.997 669.271 367.6 669.366 367.262 669.555C366.923 669.737 366.64 670.01 366.412 670.375C366.184 670.74 366.012 671.192 365.895 671.732C365.784 672.266 365.729 672.885 365.729 673.588V674.184C365.729 674.88 365.784 675.499 365.895 676.039C366.012 676.573 366.184 677.025 366.412 677.396C366.646 677.768 366.933 678.048 367.271 678.236C367.617 678.425 368.017 678.52 368.473 678.52C368.909 678.52 369.296 678.425 369.635 678.236C369.973 678.048 370.257 677.768 370.484 677.396C370.719 677.025 370.895 676.573 371.012 676.039C371.135 675.499 371.197 674.88 371.197 674.184Z" fill="white"/>
<rect opacity="0.8" x="849.37" y="194.37" width="32.0482" height="32.0482" fill="white" stroke="black" stroke-width="2.73917"/>
<rect opacity="0.8" x="849.37" y="310.37" width="32.0482" height="32.0482" fill="white" stroke="black" stroke-width="2.73917"/>
<rect opacity="0.8" x="849.37" y="426.37" width="32.0482" height="32.0482" fill="white" stroke="black" stroke-width="2.73917"/>
<rect opacity="0.8" x="849.37" y="542.37" width="32.0482" height="32.0482" fill="white" stroke="black" stroke-width="2.73917"/>
<rect opacity="0.8" x="849.37" y="658.37" width="32.0482" height="32.0482" fill="white" stroke="black" stroke-width="2.73917"/>
<rect opacity="0.8" x="896.37" y="194.37" width="32.0482" height="32.0482" rx="16.0241" fill="#FFDC56" stroke="black" stroke-width="2.73917"/>
<path d="M916.64 206.285L917.187 206.833M917.187 206.833L919.379 209.024L911.161 217.242H905.683V211.763L913.763 203.683L917.187 206.833Z" stroke="white" stroke-width="5.47833"/>
<rect opacity="0.8" x="896.37" y="310.37" width="32.0482" height="32.0482" rx="16.0241" fill="#FFDC56" stroke="black" stroke-width="2.73917"/>
<path d="M916.64 322.285L917.187 322.833M917.187 322.833L919.379 325.024L911.161 333.242H905.683V327.763L913.763 319.683L917.187 322.833Z" stroke="white" stroke-width="5.47833"/>
<rect opacity="0.8" x="896.37" y="426.37" width="32.0482" height="32.0482" rx="16.0241" fill="#FFDC56" stroke="black" stroke-width="2.73917"/>
<path d="M916.64 438.285L917.187 438.833M917.187 438.833L919.379 441.024L911.161 449.242H905.683V443.763L913.763 435.683L917.187 438.833Z" stroke="white" stroke-width="5.47833"/>
<rect opacity="0.8" x="896.37" y="542.37" width="32.0482" height="32.0482" rx="16.0241" fill="#FFDC56" stroke="black" stroke-width="2.73917"/>
<path d="M916.64 554.285L917.187 554.833M917.187 554.833L919.379 557.024L911.161 565.242H905.683V559.763L913.763 551.683L917.187 554.833Z" stroke="white" stroke-width="5.47833"/>
<rect opacity="0.8" x="896.37" y="658.37" width="32.0482" height="32.0482" rx="16.0241" fill="#FFDC56" stroke="black" stroke-width="2.73917"/>
<path d="M916.64 670.285L917.187 670.833M917.187 670.833L919.379 673.024L911.161 681.242H905.683V675.763L913.763 667.683L917.187 670.833Z" stroke="white" stroke-width="5.47833"/>
<rect opacity="0.8" x="990.37" y="194.37" width="32.0482" height="32.0482" rx="16.0241" fill="#FF5527" stroke="black" stroke-width="2.73917"/>
<path fill-rule="evenodd" clip-rule="evenodd" d="M1001.72 201.389C1001.01 201.481 1000.64 201.65 1000.38 201.91C1000.11 202.171 999.937 202.537 999.842 203.227C999.744 203.937 999.743 204.878 999.743 206.228V213.682C1000.09 213.447 1000.47 213.272 1000.87 213.166C1001.33 213.045 1001.87 213.045 1002.65 213.046H1013.66V206.228C1013.66 204.878 1013.66 203.937 1013.56 203.227C1013.47 202.537 1013.29 202.171 1013.03 201.91C1012.76 201.65 1012.39 201.481 1011.68 201.389C1010.96 201.293 1010 201.291 1008.62 201.291H1004.78C1003.4 201.291 1002.44 201.293 1001.72 201.389ZM1002.14 205.288C1002.14 204.898 1002.46 204.583 1002.86 204.583H1010.54C1010.73 204.581 1010.91 204.654 1011.05 204.786C1011.18 204.918 1011.26 205.098 1011.26 205.287C1011.26 205.476 1011.18 205.656 1011.05 205.789C1010.91 205.921 1010.73 205.994 1010.54 205.993H1002.86C1002.67 205.994 1002.49 205.921 1002.36 205.789C1002.22 205.657 1002.14 205.477 1002.14 205.288ZM1002.86 207.874C1002.67 207.873 1002.49 207.946 1002.36 208.078C1002.22 208.21 1002.14 208.39 1002.14 208.579C1002.14 208.968 1002.46 209.284 1002.86 209.284H1007.66C1007.85 209.286 1008.03 209.213 1008.17 209.081C1008.3 208.949 1008.38 208.768 1008.38 208.58C1008.38 208.391 1008.3 208.21 1008.17 208.078C1008.03 207.946 1007.85 207.872 1007.66 207.874H1002.86Z" fill="white"/>
<path d="M1002.76 214.456H1013.66C1013.66 215.439 1013.64 216.173 1013.56 216.753C1013.47 217.443 1013.29 217.808 1013.03 218.069C1012.76 218.329 1012.39 218.499 1011.69 218.591C1010.96 218.686 1010 218.688 1008.62 218.688H1004.78C1003.4 218.688 1002.44 218.686 1001.72 218.592C1001.01 218.499 1000.64 218.329 1000.38 218.069C1000.11 217.808 999.937 217.443 999.842 216.753C999.806 216.492 999.783 216.199 999.769 215.866C999.888 215.54 1000.09 215.248 1000.34 215.015C1000.6 214.782 1000.91 214.615 1001.24 214.529C1001.5 214.462 1001.83 214.456 1002.76 214.456Z" fill="white"/>
<rect opacity="0.8" x="990.37" y="310.37" width="32.0482" height="32.0482" rx="16.0241" fill="#FF5527" stroke="black" stroke-width="2.73917"/>
<path fill-rule="evenodd" clip-rule="evenodd" d="M1001.72 317.389C1001.01 317.481 1000.64 317.65 1000.38 317.91C1000.11 318.171 999.937 318.537 999.842 319.227C999.744 319.937 999.743 320.878 999.743 322.228V329.682C1000.09 329.447 1000.47 329.272 1000.87 329.166C1001.33 329.045 1001.87 329.045 1002.65 329.046H1013.66V322.228C1013.66 320.878 1013.66 319.937 1013.56 319.227C1013.47 318.537 1013.29 318.171 1013.03 317.91C1012.76 317.65 1012.39 317.481 1011.68 317.389C1010.96 317.293 1010 317.291 1008.62 317.291H1004.78C1003.4 317.291 1002.44 317.293 1001.72 317.389ZM1002.14 321.288C1002.14 320.898 1002.46 320.583 1002.86 320.583H1010.54C1010.73 320.581 1010.91 320.654 1011.05 320.786C1011.18 320.918 1011.26 321.098 1011.26 321.287C1011.26 321.476 1011.18 321.656 1011.05 321.789C1010.91 321.921 1010.73 321.994 1010.54 321.993H1002.86C1002.67 321.994 1002.49 321.921 1002.36 321.789C1002.22 321.657 1002.14 321.477 1002.14 321.288ZM1002.86 323.874C1002.67 323.873 1002.49 323.946 1002.36 324.078C1002.22 324.21 1002.14 324.39 1002.14 324.579C1002.14 324.968 1002.46 325.284 1002.86 325.284H1007.66C1007.85 325.286 1008.03 325.213 1008.17 325.081C1008.3 324.949 1008.38 324.768 1008.38 324.58C1008.38 324.391 1008.3 324.21 1008.17 324.078C1008.03 323.946 1007.85 323.872 1007.66 323.874H1002.86Z" fill="white"/>
<path d="M1002.76 330.456H1013.66C1013.66 331.439 1013.64 332.173 1013.56 332.753C1013.47 333.443 1013.29 333.808 1013.03 334.069C1012.76 334.329 1012.39 334.499 1011.69 334.591C1010.96 334.686 1010 334.688 1008.62 334.688H1004.78C1003.4 334.688 1002.44 334.686 1001.72 334.592C1001.01 334.499 1000.64 334.329 1000.38 334.069C1000.11 333.808 999.937 333.443 999.842 332.753C999.806 332.492 999.783 332.199 999.769 331.866C999.888 331.54 1000.09 331.248 1000.34 331.015C1000.6 330.782 1000.91 330.615 1001.24 330.529C1001.5 330.462 1001.83 330.456 1002.76 330.456Z" fill="white"/>
<rect opacity="0.8" x="990.37" y="426.37" width="32.0482" height="32.0482" rx="16.0241" fill="#FF5527" stroke="black" stroke-width="2.73917"/>
<path fill-rule="evenodd" clip-rule="evenodd" d="M1001.72 433.389C1001.01 433.481 1000.64 433.65 1000.38 433.91C1000.11 434.171 999.937 434.537 999.842 435.227C999.744 435.937 999.743 436.878 999.743 438.228V445.682C1000.09 445.447 1000.47 445.272 1000.87 445.166C1001.33 445.045 1001.87 445.045 1002.65 445.046H1013.66V438.228C1013.66 436.878 1013.66 435.937 1013.56 435.227C1013.47 434.537 1013.29 434.171 1013.03 433.91C1012.76 433.65 1012.39 433.481 1011.68 433.389C1010.96 433.293 1010 433.291 1008.62 433.291H1004.78C1003.4 433.291 1002.44 433.293 1001.72 433.389ZM1002.14 437.288C1002.14 436.898 1002.46 436.583 1002.86 436.583H1010.54C1010.73 436.581 1010.91 436.654 1011.05 436.786C1011.18 436.918 1011.26 437.098 1011.26 437.287C1011.26 437.476 1011.18 437.656 1011.05 437.789C1010.91 437.921 1010.73 437.994 1010.54 437.993H1002.86C1002.67 437.994 1002.49 437.921 1002.36 437.789C1002.22 437.657 1002.14 437.477 1002.14 437.288ZM1002.86 439.874C1002.67 439.873 1002.49 439.946 1002.36 440.078C1002.22 440.21 1002.14 440.39 1002.14 440.579C1002.14 440.968 1002.46 441.284 1002.86 441.284H1007.66C1007.85 441.286 1008.03 441.213 1008.17 441.081C1008.3 440.949 1008.38 440.768 1008.38 440.58C1008.38 440.391 1008.3 440.21 1008.17 440.078C1008.03 439.946 1007.85 439.872 1007.66 439.874H1002.86Z" fill="white"/>
<path d="M1002.76 446.456H1013.66C1013.66 447.439 1013.64 448.173 1013.56 448.753C1013.47 449.443 1013.29 449.808 1013.03 450.069C1012.76 450.329 1012.39 450.499 1011.69 450.591C1010.96 450.686 1010 450.688 1008.62 450.688H1004.78C1003.4 450.688 1002.44 450.686 1001.72 450.592C1001.01 450.499 1000.64 450.329 1000.38 450.069C1000.11 449.808 999.937 449.443 999.842 448.753C999.806 448.492 999.783 448.199 999.769 447.866C999.888 447.54 1000.09 447.248 1000.34 447.015C1000.6 446.782 1000.91 446.615 1001.24 446.529C1001.5 446.462 1001.83 446.456 1002.76 446.456Z" fill="white"/>
<rect opacity="0.8" x="990.37" y="542.37" width="32.0482" height="32.0482" rx="16.0241" fill="#FF5527" stroke="black" stroke-width="2.73917"/>
<path fill-rule="evenodd" clip-rule="evenodd" d="M1001.72 549.389C1001.01 549.481 1000.64 549.65 1000.38 549.91C1000.11 550.171 999.937 550.537 999.842 551.227C999.744 551.937 999.743 552.878 999.743 554.228V561.682C1000.09 561.447 1000.47 561.272 1000.87 561.166C1001.33 561.046 1001.87 561.046 1002.65 561.046H1013.66V554.228C1013.66 552.878 1013.66 551.937 1013.56 551.227C1013.47 550.537 1013.29 550.171 1013.03 549.91C1012.76 549.65 1012.39 549.481 1011.68 549.389C1010.96 549.293 1010 549.291 1008.62 549.291H1004.78C1003.4 549.291 1002.44 549.293 1001.72 549.389ZM1002.14 553.288C1002.14 552.898 1002.46 552.583 1002.86 552.583H1010.54C1010.73 552.581 1010.91 552.654 1011.05 552.786C1011.18 552.918 1011.26 553.099 1011.26 553.287C1011.26 553.476 1011.18 553.656 1011.05 553.789C1010.91 553.921 1010.73 553.994 1010.54 553.993H1002.86C1002.67 553.994 1002.49 553.921 1002.36 553.789C1002.22 553.657 1002.14 553.477 1002.14 553.288ZM1002.86 555.874C1002.67 555.873 1002.49 555.946 1002.36 556.078C1002.22 556.21 1002.14 556.39 1002.14 556.579C1002.14 556.968 1002.46 557.284 1002.86 557.284H1007.66C1007.85 557.286 1008.03 557.213 1008.17 557.081C1008.3 556.949 1008.38 556.769 1008.38 556.58C1008.38 556.391 1008.3 556.21 1008.17 556.078C1008.03 555.946 1007.85 555.872 1007.66 555.874H1002.86Z" fill="white"/>
<path d="M1002.76 562.456H1013.66C1013.66 563.439 1013.64 564.174 1013.56 564.753C1013.47 565.443 1013.29 565.808 1013.03 566.069C1012.76 566.329 1012.39 566.499 1011.69 566.591C1010.96 566.687 1010 566.688 1008.62 566.688H1004.78C1003.4 566.688 1002.44 566.687 1001.72 566.592C1001.01 566.499 1000.64 566.329 1000.38 566.069C1000.11 565.808 999.937 565.443 999.842 564.753C999.806 564.492 999.783 564.199 999.769 563.866C999.888 563.54 1000.09 563.248 1000.34 563.015C1000.6 562.782 1000.91 562.615 1001.24 562.529C1001.5 562.463 1001.83 562.456 1002.76 562.456Z" fill="white"/>
<rect opacity="0.8" x="990.37" y="658.37" width="32.0482" height="32.0482" rx="16.0241" fill="#FF5527" stroke="black" stroke-width="2.73917"/>
<path fill-rule="evenodd" clip-rule="evenodd" d="M1001.72 665.389C1001.01 665.481 1000.64 665.65 1000.38 665.91C1000.11 666.171 999.937 666.537 999.842 667.227C999.744 667.937 999.743 668.878 999.743 670.228V677.682C1000.09 677.447 1000.47 677.272 1000.87 677.166C1001.33 677.046 1001.87 677.046 1002.65 677.046H1013.66V670.228C1013.66 668.878 1013.66 667.937 1013.56 667.227C1013.47 666.537 1013.29 666.171 1013.03 665.91C1012.76 665.65 1012.39 665.481 1011.68 665.389C1010.96 665.293 1010 665.291 1008.62 665.291H1004.78C1003.4 665.291 1002.44 665.293 1001.72 665.389ZM1002.14 669.288C1002.14 668.898 1002.46 668.583 1002.86 668.583H1010.54C1010.73 668.581 1010.91 668.654 1011.05 668.786C1011.18 668.918 1011.26 669.099 1011.26 669.287C1011.26 669.476 1011.18 669.656 1011.05 669.789C1010.91 669.921 1010.73 669.994 1010.54 669.993H1002.86C1002.67 669.994 1002.49 669.921 1002.36 669.789C1002.22 669.657 1002.14 669.477 1002.14 669.288ZM1002.86 671.874C1002.67 671.873 1002.49 671.946 1002.36 672.078C1002.22 672.21 1002.14 672.39 1002.14 672.579C1002.14 672.968 1002.46 673.284 1002.86 673.284H1007.66C1007.85 673.286 1008.03 673.213 1008.17 673.081C1008.3 672.949 1008.38 672.769 1008.38 672.58C1008.38 672.391 1008.3 672.21 1008.17 672.078C1008.03 671.946 1007.85 671.872 1007.66 671.874H1002.86Z" fill="white"/>
<path d="M1002.76 678.456H1013.66C1013.66 679.439 1013.64 680.174 1013.56 680.753C1013.47 681.443 1013.29 681.808 1013.03 682.069C1012.76 682.329 1012.39 682.499 1011.69 682.591C1010.96 682.687 1010 682.688 1008.62 682.688H1004.78C1003.4 682.688 1002.44 682.687 1001.72 682.592C1001.01 682.499 1000.64 682.329 1000.38 682.069C1000.11 681.808 999.937 681.443 999.842 680.753C999.806 680.492 999.783 680.199 999.769 679.866C999.888 679.54 1000.09 679.248 1000.34 679.015C1000.6 678.782 1000.91 678.615 1001.24 678.529C1001.5 678.463 1001.83 678.456 1002.76 678.456Z" fill="white"/>
<rect opacity="0.8" x="943.37" y="194.37" width="32.0482" height="32.0482" rx="16.0241" fill="#8E0800" stroke="black" stroke-width="2.73917"/>
<path d="M952.683 203.683L959.531 210.531L966.379 217.379M966.379 203.683L952.683 217.379" stroke="white" stroke-width="5.47833"/>
<rect opacity="0.8" x="943.37" y="310.37" width="32.0482" height="32.0482" rx="16.0241" fill="#8E0800" stroke="black" stroke-width="2.73917"/>
<path d="M952.683 319.683L959.531 326.531L966.379 333.379M966.379 319.683L952.683 333.379" stroke="white" stroke-width="5.47833"/>
<rect opacity="0.8" x="943.37" y="426.37" width="32.0482" height="32.0482" rx="16.0241" fill="#8E0800" stroke="black" stroke-width="2.73917"/>
<path d="M952.683 435.683L959.531 442.531L966.379 449.379M966.379 435.683L952.683 449.379" stroke="white" stroke-width="5.47833"/>
<rect opacity="0.8" x="943.37" y="542.37" width="32.0482" height="32.0482" rx="16.0241" fill="#8E0800" stroke="black" stroke-width="2.73917"/>
<path d="M952.683 551.683L959.531 558.531L966.379 565.379M966.379 551.683L952.683 565.379" stroke="white" stroke-width="5.47833"/>
<rect opacity="0.8" x="943.37" y="658.37" width="32.0482" height="32.0482" rx="16.0241" fill="#8E0800" stroke="black" stroke-width="2.73917"/>
<path d="M952.683 667.683L959.531 674.531L966.379 681.379M966.379 667.683L952.683 681.379" stroke="white" stroke-width="5.47833"/>
</svg>
