<svg width="200" height="200" viewBox="0 0 200 200" fill="none" xmlns="http://www.w3.org/2000/svg">
<path d="M25.0874 93.6C28.6236 93.6557 32.0748 92.5148 34.8812 90.3625C37.4762 88.1891 39.2512 85.1948 39.9124 81.875C40.9517 75.7993 41.3997 69.6372 41.2499 63.475C41.2999 54.7875 41.4562 49.0646 41.7187 46.3063C41.9967 42.6728 42.8797 39.1113 44.3312 35.7688C45.4371 33.3385 47.0454 31.1701 49.0499 29.4063C51.1636 27.6979 53.6187 26.4618 56.2499 25.7813C59.426 25.1521 62.6639 24.8899 65.8999 25H70.2749V37.25H67.8562C64.021 36.7621 60.1487 37.8138 57.0874 40.175C54.8212 44.1352 53.8899 48.7196 54.4312 53.25C54.6402 61.8697 54.3543 70.4943 53.5749 79.0813C53.0074 83.6901 51.3631 88.1007 48.7749 91.9563C45.9104 95.4415 42.2607 98.1981 38.1249 100C43.455 102.043 47.8734 105.934 50.5749 110.963C53.6469 118.626 54.9666 126.879 54.4374 135.119C54.4374 145.265 54.5416 151.306 54.7499 153.244C54.8298 156.014 55.9552 158.651 57.8999 160.625C60.9119 162.358 64.3942 163.095 67.8499 162.731H70.2687V175H65.8937C62.157 175.172 58.4167 174.75 54.8124 173.75C51.5693 172.616 48.7047 170.604 46.5374 167.938C44.2335 164.983 42.7638 161.465 42.2812 157.75C41.486 151.043 41.1415 144.291 41.2499 137.538C41.4181 131.039 40.9702 124.539 39.9124 118.125C39.2406 114.804 37.4679 111.807 34.8812 109.619C32.0847 107.444 28.6297 106.288 25.0874 106.344V93.6ZM174.912 106.319C171.37 106.263 167.915 107.419 165.119 109.594C162.532 111.782 160.759 114.779 160.087 118.1C159.033 124.521 158.589 131.027 158.762 137.531C158.862 144.285 158.51 151.037 157.706 157.744C157.224 161.459 155.754 164.977 153.45 167.931C151.283 170.597 148.418 172.609 145.175 173.744C141.571 174.744 137.83 175.166 134.094 174.994H129.719V162.75H132.137C135.593 163.114 139.075 162.376 142.087 160.644C144.044 158.664 145.174 156.014 145.25 153.231C145.458 151.306 145.562 145.265 145.562 135.106C145.033 126.867 146.353 118.614 149.425 110.95C152.129 105.926 156.547 102.04 161.875 100C157.749 98.1965 154.108 95.4423 151.25 91.9625C148.662 88.107 147.017 83.6964 146.45 79.0875C145.671 70.5006 145.385 61.876 145.594 53.2563C146.135 48.7258 145.204 44.1414 142.937 40.1813C139.876 37.8201 136.004 36.7683 132.169 37.2563H129.75V25H134.125C137.353 24.8918 140.582 25.154 143.75 25.7813C146.375 26.4662 148.823 27.7042 150.931 29.4125C152.936 31.1764 154.544 33.3448 155.65 35.775C157.101 39.1176 157.984 42.6791 158.262 46.3125C158.521 49.0709 158.677 54.7938 158.731 63.4813C158.576 69.6493 159.02 75.8177 160.056 81.9C160.721 85.213 162.496 88.2002 165.087 90.3688C167.894 92.521 171.345 93.6619 174.881 93.6063L174.912 106.319Z" fill="#F5DE19"/>
</svg>
