<svg width="100" height="100" viewBox="0 0 200 200" fill="none" xmlns="http://www.w3.org/2000/svg">
<g clip-path="url(#clip0_73_10968)">
<mask id="mask0_73_10968" style="mask-type:alpha" maskUnits="userSpaceOnUse" x="-1" y="0" width="201" height="200">
<path fill-rule="evenodd" clip-rule="evenodd" d="M141.824 198.634C143.415 199.255 145.117 199.541 146.824 199.476C148.531 199.41 150.206 198.994 151.745 198.253L192.922 178.439C195.042 177.418 196.832 175.82 198.084 173.827C199.336 171.834 200 169.528 200 167.175V32.8265C200.001 30.4728 199.337 28.1668 198.084 26.1738C196.832 24.1808 195.043 22.5818 192.922 21.5609L151.745 1.74998C149.419 0.630456 146.801 0.261857 144.256 0.695193C141.711 1.12853 139.363 2.34237 137.538 4.16873L58.7094 76.0844L24.3751 50.0203C22.8262 48.8443 20.9146 48.2476 18.9718 48.3338C17.029 48.42 15.1777 49.1836 13.7391 50.4922L2.72663 60.5094C1.86843 61.2899 1.18259 62.241 0.713 63.3018C0.243407 64.3626 0.000396544 65.5097 -0.000485869 66.6698C-0.00136828 67.8299 0.239897 68.9774 0.707875 70.0389C1.17585 71.1004 1.86024 72.0525 2.71726 72.8343L32.4938 100L2.71882 127.167C1.86227 127.949 1.17829 128.901 0.710605 129.963C0.242917 131.024 0.00180901 132.171 0.00269133 133.331C0.00357365 134.491 0.246427 135.638 0.715729 136.698C1.18503 137.759 1.87046 138.71 2.7282 139.491L13.7407 149.508C15.179 150.817 17.0302 151.581 18.9731 151.667C20.9159 151.754 22.8277 151.157 24.3766 149.981L58.711 123.919L137.539 195.833C138.758 197.054 140.216 198.008 141.824 198.634ZM150.03 54.5984L90.2188 100L150.031 145.403L150.03 54.5984Z" fill="white"/>
</mask>
<g mask="url(#mask0_73_10968)">
<path d="M192.923 21.5937L151.714 1.74993C149.386 0.629668 146.768 0.260669 144.222 0.694009C141.675 1.12735 139.326 2.3416 137.5 4.16868L2.59682 127.167C1.73963 127.949 1.05508 128.901 0.586974 129.962C0.118872 131.023 -0.122462 132.171 -0.12158 133.331C-0.120697 134.491 0.122382 135.638 0.592099 136.699C1.06182 137.759 1.74782 138.71 2.6062 139.491L13.6249 149.508C15.0645 150.817 16.9167 151.581 18.8605 151.667C20.8043 151.754 22.717 151.157 24.2671 149.981L186.722 26.739C192.172 22.6046 200 26.4921 200 33.3327V32.8546C200 30.5016 199.336 28.1965 198.084 26.2041C196.832 24.2118 195.043 22.6147 192.923 21.5937Z" fill="#0065A9"/>
<g filter="url(#filter0_d_73_10968)">
<path d="M192.923 178.408L151.714 198.248C149.387 199.369 146.769 199.738 144.222 199.306C141.675 198.873 139.326 197.659 137.5 195.833L2.59682 72.8327C1.73963 72.0511 1.05508 71.0991 0.586974 70.0378C0.118872 68.9764 -0.122462 67.8289 -0.12158 66.6689C-0.120697 65.5089 0.122382 64.3618 0.592099 63.3011C1.06182 62.2405 1.74782 61.2896 2.6062 60.5093L13.6249 50.4921C15.0645 49.1831 16.9167 48.4192 18.8605 48.3327C20.8043 48.2462 22.717 48.8427 24.2671 50.0186L186.722 173.259C192.172 177.395 200 173.508 200 166.667V167.145C200 169.498 199.336 171.803 198.084 173.796C196.832 175.788 195.043 177.387 192.923 178.408Z" fill="#007ACC"/>
</g>
<g filter="url(#filter1_d_73_10968)">
<path d="M151.716 198.253C149.387 199.373 146.769 199.741 144.222 199.307C141.676 198.874 139.327 197.66 137.5 195.833C142.112 200.445 150 197.178 150 190.655V9.34367C150 2.82023 142.112 -0.446953 137.5 4.16711C139.327 2.34024 141.676 1.12605 144.222 0.692452C146.769 0.258859 149.387 0.627292 151.716 1.7468L192.917 21.5624C195.039 22.5827 196.829 24.1814 198.082 26.1744C199.335 28.1674 200 30.4738 200 32.828V167.175C200 169.529 199.335 171.836 198.082 173.829C196.829 175.822 195.039 177.42 192.917 178.441L151.716 198.253Z" fill="#1F9CF0"/>
</g>
<path opacity="0.25" fill-rule="evenodd" clip-rule="evenodd" d="M141.703 198.634C143.295 199.255 144.996 199.541 146.703 199.475C148.41 199.41 150.085 198.994 151.624 198.253L192.8 178.439C194.921 177.418 196.71 175.819 197.962 173.826C199.215 171.833 199.879 169.527 199.878 167.173V32.8265C199.879 30.4728 199.215 28.1668 197.962 26.1738C196.71 24.1808 194.921 22.5818 192.8 21.5609L151.624 1.74998C149.297 0.630456 146.68 0.261857 144.134 0.695193C141.589 1.12853 139.241 2.34237 137.416 4.16873L58.5876 76.0844L24.2532 50.0219C22.7044 48.8459 20.7927 48.2492 18.85 48.3354C16.9072 48.4216 15.0559 49.1852 13.6173 50.4937L2.60478 60.5109C1.74679 61.2916 1.06115 62.2427 0.591693 63.3035C0.122238 64.3643 -0.120697 65.5113 -0.12158 66.6713C-0.122462 67.8314 0.118728 68.9788 0.586568 70.0403C1.05441 71.1017 1.7386 72.0539 2.59541 72.8359L32.372 100L2.59697 127.166C1.73995 127.947 1.05557 128.9 0.587587 129.961C0.119608 131.023 -0.121657 132.17 -0.120775 133.33C-0.119892 134.49 0.123118 135.637 0.592711 136.698C1.0623 137.759 1.74814 138.71 2.60635 139.491L13.6188 149.508C15.0573 150.817 16.9085 151.58 18.8512 151.667C20.794 151.753 22.7058 151.157 24.2548 149.981L58.5907 123.917L137.419 195.833C138.637 197.054 140.096 198.008 141.703 198.634ZM149.909 54.5969L90.097 100L149.909 145.402V54.5969Z" fill="url(#paint0_linear_73_10968)"/>
</g>
</g>
<defs>
<filter id="filter0_d_73_10968" x="-8.45558" y="39.9905" width="216.79" height="167.825" filterUnits="userSpaceOnUse" color-interpolation-filters="sRGB">
<feFlood flood-opacity="0" result="BackgroundImageFix"/>
<feColorMatrix in="SourceAlpha" type="matrix" values="0 0 0 0 0 0 0 0 0 0 0 0 0 0 0 0 0 0 127 0" result="hardAlpha"/>
<feOffset/>
<feGaussianBlur stdDeviation="4.167"/>
<feColorMatrix type="matrix" values="0 0 0 0 0 0 0 0 0 0 0 0 0 0 0 0 0 0 0.25 0"/>
<feBlend mode="overlay" in2="BackgroundImageFix" result="effect1_dropShadow_73_10968"/>
<feBlend mode="normal" in="SourceGraphic" in2="effect1_dropShadow_73_10968" result="shape"/>
</filter>
<filter id="filter1_d_73_10968" x="129.166" y="-7.81837" width="79.168" height="215.637" filterUnits="userSpaceOnUse" color-interpolation-filters="sRGB">
<feFlood flood-opacity="0" result="BackgroundImageFix"/>
<feColorMatrix in="SourceAlpha" type="matrix" values="0 0 0 0 0 0 0 0 0 0 0 0 0 0 0 0 0 0 127 0" result="hardAlpha"/>
<feOffset/>
<feGaussianBlur stdDeviation="4.167"/>
<feColorMatrix type="matrix" values="0 0 0 0 0 0 0 0 0 0 0 0 0 0 0 0 0 0 0.25 0"/>
<feBlend mode="overlay" in2="BackgroundImageFix" result="effect1_dropShadow_73_10968"/>
<feBlend mode="normal" in="SourceGraphic" in2="effect1_dropShadow_73_10968" result="shape"/>
</filter>
<linearGradient id="paint0_linear_73_10968" x1="99.8782" y1="0.515603" x2="99.8782" y2="199.484" gradientUnits="userSpaceOnUse">
<stop stop-color="white"/>
<stop offset="1" stop-color="white" stop-opacity="0"/>
</linearGradient>
<clipPath id="clip0_73_10968">
<rect width="200" height="200" fill="white"/>
</clipPath>
</defs>
</svg>
