<svg width="200" height="200" viewBox="0 0 200 200" fill="none" xmlns="http://www.w3.org/2000/svg">
<path d="M166.705 3.72974H96.1421C96.1421 21.3204 110.383 35.5579 127.966 35.5579H140.948V48.1204C140.948 65.711 155.187 79.95 172.778 79.95V9.80161C172.776 8.19149 172.136 6.64781 170.997 5.50942C169.859 4.37104 168.315 3.73098 166.705 3.72974Z" fill="#2684FF"/>
<path d="M131.739 38.9094H61.1768C61.1768 56.5 75.4096 70.7344 93.0002 70.7344H105.981V83.3C105.981 100.891 120.221 115.131 137.811 115.131V44.9829C137.81 43.3727 137.17 41.8289 136.031 40.6902C134.893 39.5515 133.349 38.9111 131.739 38.9094Z" fill="url(#paint0_linear_73_10963)"/>
<path d="M96.7719 74.0844H26.2031C26.2031 91.675 40.4422 105.914 58.0312 105.914H71.0156V118.481C71.0156 136.066 85.2531 150.305 102.844 150.305V80.1578C102.843 78.5477 102.202 77.0038 101.064 75.8651C99.9257 74.7265 98.382 74.086 96.7719 74.0844Z" fill="url(#paint1_linear_73_10963)"/>
<path d="M71.8749 158.191H77.2405V184.722C77.2405 191.723 74.0483 196.606 66.6374 196.606C63.8562 196.606 61.6765 196.142 60.1812 195.617V190.533C61.8171 191.192 63.7874 191.522 65.7593 191.522C70.3124 191.522 71.8749 188.886 71.8749 185.053V158.191ZM87.0968 156.141C89.203 156.141 90.6983 157.397 90.6983 159.637C90.6983 161.816 89.203 163.141 87.0968 163.141C84.9921 163.141 83.4968 161.883 83.4968 159.637C83.4968 157.466 84.9921 156.141 87.0968 156.141ZM84.4483 167.297H89.6124V196.344H84.4483V167.297ZM102.386 196.344H97.3593V167.297H102.387V172.381C104.158 168.945 107.148 166.505 112.989 166.834V171.722C106.398 171.063 102.387 172.973 102.387 179.181L102.386 196.344ZM137.122 191.125C135.217 194.958 131.616 196.938 126.989 196.938C119.044 196.938 115.033 190.398 115.033 181.817C115.033 173.633 119.244 166.705 127.606 166.705C131.951 166.705 135.351 168.616 137.122 172.381V167.297H142.286V196.344H137.122V191.125ZM128.351 192.316C132.972 192.316 137.048 189.478 137.048 183.008V180.7C137.048 174.231 133.314 171.392 128.894 171.392C123.12 171.392 120.128 175.086 120.128 181.817C120.197 188.817 123.053 192.316 128.351 192.316Z" fill="#253858"/>
<defs>
<linearGradient id="paint0_linear_73_10963" x1="136.344" y1="38.9885" x2="106.32" y2="69.9466" gradientUnits="userSpaceOnUse">
<stop offset="0.176" stop-color="#0052CC"/>
<stop offset="1" stop-color="#2684FF"/>
</linearGradient>
<linearGradient id="paint1_linear_73_10963" x1="103.407" y1="74.356" x2="68.693" y2="108.13" gradientUnits="userSpaceOnUse">
<stop offset="0.176" stop-color="#0052CC"/>
<stop offset="1" stop-color="#2684FF"/>
</linearGradient>
</defs>
</svg>
