<svg width="205" height="200" viewBox="0 0 205 200" fill="none" xmlns="http://www.w3.org/2000/svg">
<path d="M102.483 0C89.0245 0 75.698 2.65079 63.2643 7.80103C50.8305 12.9513 39.5329 20.5001 30.0165 30.0165C10.7973 49.2357 0 75.3026 0 102.483C0 147.78 29.4125 186.211 70.0982 199.841C75.2223 200.661 76.862 197.484 76.862 194.717V177.398C48.4743 183.547 42.4278 163.665 42.4278 163.665C37.7136 151.777 31.0523 148.6 31.0523 148.6C21.7263 142.246 31.7696 142.451 31.7696 142.451C42.0179 143.168 47.4495 153.007 47.4495 153.007C56.3655 168.584 71.4304 163.972 77.2719 161.513C78.1943 154.851 80.8588 150.342 83.7284 147.78C60.9772 145.218 37.0987 136.404 37.0987 97.3586C37.0987 85.983 40.9931 76.862 47.6545 69.5858C46.6296 67.0237 43.0427 56.3655 48.6793 42.5303C48.6793 42.5303 57.2878 39.7633 76.862 52.9836C84.9582 50.7289 93.7717 49.6016 102.483 49.6016C111.194 49.6016 120.007 50.7289 128.103 52.9836C147.678 39.7633 156.286 42.5303 156.286 42.5303C161.923 56.3655 158.336 67.0237 157.311 69.5858C163.972 76.862 167.867 85.983 167.867 97.3586C167.867 136.507 143.886 145.116 121.032 147.678C124.721 150.855 128.103 157.106 128.103 166.637V194.717C128.103 197.484 129.743 200.764 134.97 199.841C175.655 186.109 204.965 147.78 204.965 102.483C204.965 89.0245 202.315 75.698 197.164 63.2643C192.014 50.8305 184.465 39.5329 174.949 30.0165C165.432 20.5001 154.135 12.9513 141.701 7.80103C129.267 2.65079 115.941 0 102.483 0Z" fill="black"/>
</svg>
