<svg width="100" height="100" viewBox="0 0 200 200" fill="none" xmlns="http://www.w3.org/2000/svg">
<g clip-path="url(#clip0_73_10952)">
<path d="M153.125 0H46.875C20.9867 0 0 20.9867 0 46.875V153.125C0 179.013 20.9867 200 46.875 200H153.125C179.013 200 200 179.013 200 153.125V46.875C200 20.9867 179.013 0 153.125 0Z" fill="#CD6799"/>
<mask id="mask0_73_10952" style="mask-type:luminance" maskUnits="userSpaceOnUse" x="21" y="41" width="158" height="118">
<path d="M21.875 41.4062H178.125V158.523H21.875V41.4062Z" fill="white"/>
</mask>
<g mask="url(#mask0_73_10952)">
<path d="M156.333 108.721C150.885 108.749 146.151 110.062 142.186 112.001C140.731 109.12 139.276 106.553 139.019 104.67C138.734 102.474 138.392 101.134 138.734 98.5094C139.076 95.8851 140.617 92.1492 140.588 91.864C140.56 91.5781 140.246 90.2383 137.108 90.2094C133.971 90.1812 131.262 90.8086 130.948 91.6359C130.633 92.4625 130.035 94.3453 129.636 96.2851C129.094 99.1375 123.36 109.32 120.08 114.654C119.025 112.572 118.112 110.746 117.912 109.291C117.627 107.095 117.285 105.755 117.627 103.13C117.969 100.506 119.51 96.7695 119.481 96.4843C119.453 96.1992 119.139 94.8586 116.001 94.8304C112.864 94.8015 110.154 95.4289 109.841 96.2562C109.526 97.0836 109.184 99.0234 108.528 100.905C107.873 102.788 100.257 119.788 98.26 124.18C97.4532 125.958 96.6069 127.717 95.7218 129.457C95.7218 129.457 95.6928 129.543 95.6077 129.685C95.3293 130.231 95.0439 130.773 94.7514 131.311V131.34C94.3241 132.11 93.8671 132.823 93.6389 132.823C93.4679 132.823 93.1546 130.77 93.696 127.974C94.8374 122.07 97.5468 112.885 97.5186 112.572C97.5186 112.401 98.0319 110.803 95.7499 109.976C93.5249 109.148 92.7264 110.518 92.5264 110.518C92.3272 110.518 92.1843 111.003 92.1843 111.003C92.1843 111.003 94.6663 100.677 87.4499 100.677C82.9428 100.677 76.7249 105.612 73.6452 110.062C70.1431 111.967 66.6438 113.878 63.1475 115.795C61.4655 116.736 59.7257 117.677 58.0991 118.562C57.985 118.448 57.871 118.305 57.7569 118.191C49.0288 108.863 32.885 102.275 33.5694 89.7531C33.8264 85.189 35.3952 73.2094 64.5741 58.6625C88.5905 46.8258 107.701 50.1054 111.01 57.3789C115.744 67.7617 100.77 87.0429 75.9554 89.8383C66.485 90.8937 61.5225 87.2429 60.2678 85.8742C58.9553 84.4476 58.7553 84.3625 58.2702 84.6476C57.4718 85.075 57.985 86.3586 58.2702 87.1C59.0124 89.0398 62.0639 92.4625 67.2264 94.1453C71.7905 95.6289 82.8858 96.4562 96.3202 91.2648C111.352 85.4461 123.104 69.2726 119.652 55.725C116.201 41.9765 93.3827 37.4414 71.7905 45.114C58.9546 49.6781 45.0358 56.8656 35.0241 66.2211C23.1296 77.3461 21.2475 87.0148 22.0179 91.0648C24.7843 105.441 44.6077 114.796 52.5374 121.727C52.1382 121.955 51.7671 122.155 51.4538 122.327C47.4889 124.295 32.3718 132.195 28.6061 140.553C24.328 150.023 29.2913 156.811 32.571 157.723C42.7538 160.548 53.2218 155.47 58.8413 147.084C64.46 138.698 63.7757 127.803 61.1796 122.812C61.1518 122.748 61.1132 122.691 61.0655 122.641C62.0929 122.041 63.1475 121.414 64.1749 120.815C66.0625 119.699 67.9739 118.625 69.9077 117.591C68.9382 120.245 68.2249 123.41 67.8827 127.974C67.4554 133.337 69.6514 140.296 72.5319 143.034C73.8155 144.232 75.3272 144.261 76.2975 144.261C79.6632 144.261 81.1749 141.466 82.8577 138.157C84.9108 134.106 86.7655 129.4 86.7655 129.4C86.7655 129.4 84.4546 142.122 90.7296 142.122C93.0116 142.122 95.3218 139.155 96.3491 137.644V137.672C96.3491 137.672 96.4061 137.587 96.5202 137.387C96.7483 137.016 96.8905 136.787 96.8905 136.787V136.73C97.8038 135.134 99.8569 131.511 102.909 125.492C106.845 117.734 110.639 108.037 110.639 108.037C110.639 108.037 110.981 110.404 112.151 114.34C112.835 116.651 114.262 119.189 115.402 121.642C114.49 122.926 113.919 123.638 113.919 123.638L113.948 123.667C113.206 124.637 112.408 125.692 111.523 126.719C108.414 130.427 104.706 134.677 104.193 135.904C103.594 137.359 103.737 138.413 104.877 139.27C105.705 139.897 107.187 139.982 108.699 139.897C111.494 139.697 113.463 139.012 114.433 138.584C115.944 138.043 117.713 137.216 119.367 135.989C122.419 133.736 124.273 130.512 124.102 126.262C124.016 123.923 123.246 121.585 122.305 119.388C122.591 118.989 122.847 118.59 123.132 118.191C127.953 111.145 131.689 103.416 131.689 103.416C131.689 103.416 132.031 105.783 133.201 109.72C133.771 111.716 134.941 113.884 135.968 115.995C131.433 119.674 128.637 123.952 127.639 126.748C125.842 131.939 127.24 134.277 129.892 134.82C131.091 135.077 132.801 134.506 134.057 133.964C135.654 133.451 137.537 132.566 139.333 131.254C142.385 129.001 145.323 125.863 145.152 121.613C145.066 119.674 144.553 117.762 143.84 115.909C147.691 114.312 152.654 113.427 158.986 114.169C172.563 115.766 175.244 124.237 174.73 127.803C174.217 131.368 171.365 133.308 170.423 133.907C169.483 134.506 169.169 134.705 169.255 135.134C169.369 135.761 169.825 135.732 170.623 135.618C171.736 135.419 177.754 132.737 178.011 126.177C178.439 117.791 170.452 108.635 156.333 108.721ZM51.596 144.033C47.0897 148.938 40.8147 150.793 38.1046 149.224C35.1952 147.541 36.3358 140.296 41.8702 135.105C45.235 131.939 49.571 129.001 52.4514 127.204C53.1077 126.805 54.0772 126.234 55.2468 125.521C55.4468 125.407 55.5608 125.35 55.5608 125.35L56.2452 124.922C58.2702 132.338 56.3304 138.87 51.596 144.033ZM84.3975 121.727C82.8288 125.55 79.5491 135.333 77.5522 134.791C75.8413 134.334 74.7858 126.919 77.21 119.588C78.4366 115.909 81.0319 111.516 82.5436 109.805C84.9968 107.066 87.7061 106.154 88.3624 107.266C89.1897 108.721 85.3679 119.331 84.3975 121.727ZM111.466 134.677C110.81 135.02 110.183 135.248 109.898 135.077C109.698 134.962 110.183 134.506 110.183 134.506C110.183 134.506 113.577 130.855 114.918 129.201C115.687 128.23 116.601 127.09 117.57 125.806V126.177C117.57 130.541 113.349 133.479 111.466 134.677ZM132.345 129.913C131.86 129.571 131.946 128.43 133.572 124.865C134.199 123.467 135.683 121.129 138.221 118.875C138.506 119.788 138.706 120.672 138.677 121.499C138.649 127.005 134.712 129.058 132.345 129.913Z" fill="white"/>
</g>
</g>
<defs>
<clipPath id="clip0_73_10952">
<rect width="200" height="200" fill="white"/>
</clipPath>
</defs>
</svg>
