<svg width="341" height="716" viewBox="0 0 341 716" fill="none" xmlns="http://www.w3.org/2000/svg">
<rect x="5" y="5" width="331" height="706" rx="45" fill="white" stroke="black" stroke-width="10"/>
<path d="M119.921 35.1543L114.721 52H109.198L117.035 30.6719H120.536L119.921 35.1543ZM124.228 52L119.013 35.1543L118.339 30.6719H121.884L129.765 52H124.228ZM124.022 44.0459V48.0156H113.08V44.0459H124.022ZM145.424 48.0449V52H134.643V48.0449H145.424ZM136.474 30.6719V52H131.332V30.6719H136.474ZM161.684 48.0449V52H150.902V48.0449H161.684ZM152.733 30.6719V52H147.592V30.6719H152.733ZM185.414 48.0449V52H174.633V48.0449H185.414ZM176.464 30.6719V52H171.322V30.6719H176.464ZM193.046 30.6719V52H187.919V30.6719H193.046ZM207.65 46.3311C207.65 45.999 207.602 45.7012 207.504 45.4375C207.406 45.1641 207.226 44.9102 206.962 44.6758C206.698 44.4414 206.317 44.207 205.819 43.9727C205.331 43.7285 204.687 43.4746 203.886 43.2109C202.948 42.8984 202.045 42.5469 201.176 42.1562C200.307 41.7559 199.53 41.292 198.847 40.7646C198.163 40.2275 197.621 39.6025 197.221 38.8896C196.82 38.167 196.62 37.3271 196.62 36.3701C196.62 35.4521 196.825 34.627 197.235 33.8945C197.646 33.1523 198.217 32.5225 198.949 32.0049C199.691 31.4775 200.561 31.0771 201.557 30.8037C202.553 30.5205 203.642 30.3789 204.823 30.3789C206.386 30.3789 207.763 30.6523 208.954 31.1992C210.155 31.7363 211.093 32.5029 211.767 33.499C212.45 34.4854 212.792 35.6523 212.792 37H207.68C207.68 36.4629 207.567 35.9893 207.343 35.5791C207.128 35.1689 206.801 34.8467 206.361 34.6123C205.922 34.3779 205.37 34.2607 204.706 34.2607C204.062 34.2607 203.52 34.3584 203.08 34.5537C202.641 34.749 202.309 35.0127 202.084 35.3447C201.859 35.667 201.747 36.0234 201.747 36.4141C201.747 36.7363 201.835 37.0293 202.011 37.293C202.196 37.5469 202.455 37.7861 202.787 38.0107C203.129 38.2354 203.539 38.4502 204.018 38.6553C204.506 38.8604 205.053 39.0605 205.658 39.2559C206.791 39.6172 207.797 40.0225 208.676 40.4717C209.564 40.9111 210.312 41.4141 210.917 41.9805C211.532 42.5371 211.996 43.1719 212.309 43.8848C212.631 44.5977 212.792 45.4033 212.792 46.3018C212.792 47.2588 212.606 48.1084 212.235 48.8506C211.864 49.5928 211.332 50.2227 210.639 50.7402C209.945 51.248 209.115 51.6338 208.148 51.8975C207.182 52.1611 206.103 52.293 204.911 52.293C203.817 52.293 202.738 52.1562 201.674 51.8828C200.619 51.5996 199.662 51.1699 198.803 50.5938C197.943 50.0078 197.255 49.2607 196.737 48.3525C196.229 47.4346 195.976 46.3457 195.976 45.0859H201.132C201.132 45.7109 201.215 46.2383 201.381 46.668C201.547 47.0977 201.791 47.4443 202.113 47.708C202.436 47.9619 202.831 48.1475 203.3 48.2646C203.769 48.3721 204.306 48.4258 204.911 48.4258C205.565 48.4258 206.093 48.333 206.493 48.1475C206.894 47.9521 207.187 47.6982 207.372 47.3857C207.558 47.0635 207.65 46.7119 207.65 46.3311ZM225.771 30.6719V52H220.629V30.6719H225.771ZM232.187 30.6719V34.6416H214.359V30.6719H232.187Z" fill="black"/>
<rect x="25" y="111" width="144" height="114" fill="#024BA0"/>
<rect x="25" y="227" width="144" height="114" fill="#024BA0"/>
<rect x="25" y="343" width="144" height="114" fill="#024BA0"/>
<rect x="25" y="459" width="144" height="114" fill="#024BA0"/>
<rect x="25" y="575" width="144" height="114" fill="#024BA0"/>
<rect x="172" y="111" width="144" height="114" fill="#024BA0"/>
<rect x="172" y="227" width="144" height="114" fill="#024BA0"/>
<rect x="172" y="343" width="144" height="114" fill="#024BA0"/>
<rect x="172" y="459" width="144" height="114" fill="#024BA0"/>
<rect x="172" y="575" width="144" height="114" fill="#024BA0"/>
<path d="M50.4648 86.7695L46.998 98H43.3164L48.541 83.7812H50.875L50.4648 86.7695ZM53.3359 98L49.8594 86.7695L49.4102 83.7812H51.7734L57.0273 98H53.3359ZM53.1992 92.6973V95.3438H45.9043V92.6973H53.1992ZM65.9434 93.1855H69.3613C69.3158 94.1751 69.0488 95.0475 68.5605 95.8027C68.0723 96.5579 67.3952 97.1471 66.5293 97.5703C65.6699 97.987 64.6543 98.1953 63.4824 98.1953C62.5319 98.1953 61.6823 98.0358 60.9336 97.7168C60.1914 97.3978 59.5599 96.9388 59.0391 96.3398C58.5247 95.7409 58.1309 95.015 57.8574 94.1621C57.5905 93.3092 57.457 92.349 57.457 91.2812V90.5098C57.457 89.4421 57.597 88.4818 57.877 87.6289C58.1634 86.7695 58.5671 86.0404 59.0879 85.4414C59.6152 84.8359 60.2467 84.3737 60.9824 84.0547C61.7181 83.7357 62.5352 83.5762 63.4336 83.5762C64.6706 83.5762 65.7155 83.7975 66.5684 84.2402C67.4212 84.6829 68.082 85.2917 68.5508 86.0664C69.0195 86.8346 69.2962 87.7103 69.3809 88.6934H65.9629C65.9499 88.1595 65.8587 87.7135 65.6895 87.3555C65.5202 86.9909 65.2533 86.7174 64.8887 86.5352C64.5241 86.3529 64.0391 86.2617 63.4336 86.2617C63.0104 86.2617 62.6426 86.3398 62.3301 86.4961C62.0176 86.6523 61.7572 86.8997 61.5488 87.2383C61.3405 87.5768 61.1842 88.0163 61.0801 88.5566C60.9824 89.0905 60.9336 89.735 60.9336 90.4902V91.2812C60.9336 92.0365 60.9792 92.681 61.0703 93.2148C61.1615 93.7487 61.3079 94.1849 61.5098 94.5234C61.7116 94.862 61.972 95.1126 62.291 95.2754C62.6165 95.4316 63.0137 95.5098 63.4824 95.5098C64.0033 95.5098 64.4427 95.4284 64.8008 95.2656C65.1589 95.0964 65.4355 94.8424 65.6309 94.5039C65.8262 94.1589 65.9303 93.7194 65.9434 93.1855ZM77.5742 83.7812V98H74.1465V83.7812H77.5742ZM81.8516 83.7812V86.4277H69.9668V83.7812H81.8516ZM86.9492 83.7812V98H83.5312V83.7812H86.9492ZM94.7422 94.6504L97.7012 83.7812H101.539L96.7441 98H94.2637L94.7422 94.6504ZM92.0566 83.7812L95.0156 94.6504L95.5137 98H93.0039L88.2383 83.7812H92.0566ZM106.227 83.7812V98H102.809V83.7812H106.227ZM115.23 83.7812V98H111.803V83.7812H115.23ZM119.508 83.7812V86.4277H107.623V83.7812H119.508ZM124.605 83.7812V98H121.188V83.7812H124.605ZM136.803 95.3633V98H129.225V95.3633H136.803ZM130.445 83.7812V98H127.018V83.7812H130.445ZM135.826 89.4258V91.9746H129.225V89.4258H135.826ZM136.832 83.7812V86.4277H129.225V83.7812H136.832ZM145.533 94.2207C145.533 93.9993 145.501 93.8008 145.436 93.625C145.37 93.4427 145.25 93.2734 145.074 93.1172C144.898 92.9609 144.645 92.8047 144.312 92.6484C143.987 92.4857 143.557 92.3164 143.023 92.1406C142.398 91.9323 141.796 91.6979 141.217 91.4375C140.637 91.1706 140.12 90.8613 139.664 90.5098C139.208 90.1517 138.847 89.735 138.58 89.2598C138.313 88.778 138.18 88.2181 138.18 87.5801C138.18 86.9681 138.316 86.418 138.59 85.9297C138.863 85.4349 139.244 85.015 139.732 84.6699C140.227 84.3184 140.807 84.0514 141.471 83.8691C142.135 83.6803 142.861 83.5859 143.648 83.5859C144.69 83.5859 145.608 83.7682 146.402 84.1328C147.203 84.4909 147.828 85.002 148.277 85.666C148.733 86.3236 148.961 87.1016 148.961 88H145.553C145.553 87.6419 145.478 87.3262 145.328 87.0527C145.185 86.7793 144.967 86.5645 144.674 86.4082C144.381 86.252 144.013 86.1738 143.57 86.1738C143.141 86.1738 142.779 86.2389 142.486 86.3691C142.193 86.4993 141.972 86.6751 141.822 86.8965C141.673 87.1113 141.598 87.349 141.598 87.6094C141.598 87.8242 141.656 88.0195 141.773 88.1953C141.897 88.3646 142.07 88.5241 142.291 88.6738C142.519 88.8236 142.792 88.9668 143.111 89.1035C143.437 89.2402 143.801 89.3737 144.205 89.5039C144.96 89.7448 145.631 90.015 146.217 90.3145C146.809 90.6074 147.307 90.9427 147.711 91.3203C148.121 91.6914 148.43 92.1146 148.639 92.5898C148.854 93.0651 148.961 93.6022 148.961 94.2012C148.961 94.8392 148.837 95.4056 148.59 95.9004C148.342 96.3952 147.988 96.8151 147.525 97.1602C147.063 97.4987 146.51 97.7559 145.865 97.9316C145.221 98.1074 144.501 98.1953 143.707 98.1953C142.978 98.1953 142.258 98.1042 141.549 97.9219C140.846 97.7331 140.208 97.4466 139.635 97.0625C139.062 96.6719 138.603 96.1738 138.258 95.5684C137.919 94.9564 137.75 94.2305 137.75 93.3906H141.188C141.188 93.8073 141.243 94.1589 141.354 94.4453C141.464 94.7318 141.627 94.9629 141.842 95.1387C142.057 95.3079 142.32 95.4316 142.633 95.5098C142.945 95.5814 143.303 95.6172 143.707 95.6172C144.143 95.6172 144.495 95.5553 144.762 95.4316C145.029 95.3014 145.224 95.1322 145.348 94.9238C145.471 94.709 145.533 94.4746 145.533 94.2207Z" fill="black"/>
<path d="M204.035 91.9551H200.373L200.354 89.709H203.322C203.856 89.709 204.283 89.6504 204.602 89.5332C204.921 89.4095 205.152 89.2305 205.295 88.9961C205.445 88.7617 205.52 88.4688 205.52 88.1172C205.52 87.7135 205.445 87.388 205.295 87.1406C205.145 86.8932 204.908 86.7142 204.582 86.6035C204.263 86.4863 203.85 86.4277 203.342 86.4277H201.662V98H198.234V83.7812H203.342C204.221 83.7812 205.005 83.8626 205.695 84.0254C206.385 84.1816 206.971 84.4225 207.453 84.748C207.941 85.0736 208.312 85.4837 208.566 85.9785C208.82 86.4668 208.947 87.043 208.947 87.707C208.947 88.2865 208.824 88.8301 208.576 89.3379C208.329 89.8457 207.915 90.2591 207.336 90.5781C206.763 90.8906 205.979 91.0534 204.982 91.0664L204.035 91.9551ZM203.898 98H199.543L200.715 95.3633H203.898C204.367 95.3633 204.742 95.2917 205.021 95.1484C205.308 94.9987 205.513 94.8034 205.637 94.5625C205.767 94.3151 205.832 94.0417 205.832 93.7422C205.832 93.3776 205.77 93.0618 205.646 92.7949C205.529 92.528 205.34 92.3229 205.08 92.1797C204.82 92.0299 204.471 91.9551 204.035 91.9551H201.154L201.174 89.709H204.621L205.422 90.6074C206.372 90.5684 207.124 90.7018 207.678 91.0078C208.238 91.3138 208.638 91.7174 208.879 92.2188C209.12 92.7201 209.24 93.2441 209.24 93.791C209.24 94.722 209.038 95.5 208.635 96.125C208.238 96.75 207.642 97.2188 206.848 97.5312C206.053 97.8438 205.07 98 203.898 98ZM218.859 83.7812H222.287V93.0684C222.287 94.1751 222.056 95.1126 221.594 95.8809C221.132 96.6426 220.484 97.2188 219.65 97.6094C218.817 98 217.837 98.1953 216.711 98.1953C215.598 98.1953 214.618 98 213.771 97.6094C212.932 97.2188 212.274 96.6426 211.799 95.8809C211.33 95.1126 211.096 94.1751 211.096 93.0684V83.7812H214.533V93.0684C214.533 93.6543 214.618 94.1328 214.787 94.5039C214.956 94.8685 215.204 95.1354 215.529 95.3047C215.855 95.474 216.249 95.5586 216.711 95.5586C217.18 95.5586 217.574 95.474 217.893 95.3047C218.212 95.1354 218.452 94.8685 218.615 94.5039C218.778 94.1328 218.859 93.6543 218.859 93.0684V83.7812ZM231.33 83.7812V98H227.902V83.7812H231.33ZM235.607 83.7812V86.4277H223.723V83.7812H235.607ZM244.104 83.7812V98H240.676V83.7812H244.104ZM248.381 83.7812V86.4277H236.496V83.7812H248.381ZM261.594 90.6074V91.1836C261.594 92.2708 261.441 93.2474 261.135 94.1133C260.835 94.9727 260.409 95.7083 259.855 96.3203C259.302 96.9258 258.648 97.3913 257.893 97.7168C257.137 98.0358 256.304 98.1953 255.393 98.1953C254.475 98.1953 253.635 98.0358 252.873 97.7168C252.118 97.3913 251.46 96.9258 250.9 96.3203C250.347 95.7083 249.917 94.9727 249.611 94.1133C249.312 93.2474 249.162 92.2708 249.162 91.1836V90.6074C249.162 89.5202 249.312 88.5436 249.611 87.6777C249.917 86.8118 250.344 86.0762 250.891 85.4707C251.444 84.8587 252.098 84.3932 252.854 84.0742C253.615 83.7487 254.455 83.5859 255.373 83.5859C256.285 83.5859 257.118 83.7487 257.873 84.0742C258.635 84.3932 259.292 84.8587 259.846 85.4707C260.399 86.0762 260.829 86.8118 261.135 87.6777C261.441 88.5436 261.594 89.5202 261.594 90.6074ZM258.117 91.1836V90.5879C258.117 89.8848 258.055 89.2663 257.932 88.7324C257.814 88.1921 257.639 87.7396 257.404 87.375C257.17 87.0104 256.88 86.737 256.535 86.5547C256.197 86.3659 255.809 86.2715 255.373 86.2715C254.917 86.2715 254.52 86.3659 254.182 86.5547C253.843 86.737 253.56 87.0104 253.332 87.375C253.104 87.7396 252.932 88.1921 252.814 88.7324C252.704 89.2663 252.648 89.8848 252.648 90.5879V91.1836C252.648 91.8802 252.704 92.4987 252.814 93.0391C252.932 93.5729 253.104 94.0254 253.332 94.3965C253.566 94.7676 253.853 95.0475 254.191 95.2363C254.536 95.4251 254.937 95.5195 255.393 95.5195C255.829 95.5195 256.216 95.4251 256.555 95.2363C256.893 95.0475 257.176 94.7676 257.404 94.3965C257.639 94.0254 257.814 93.5729 257.932 93.0391C258.055 92.4987 258.117 91.8802 258.117 91.1836ZM275.246 83.7812V98H271.828L266.799 89.1523V98H263.371V83.7812H266.799L271.828 92.6289V83.7812H275.246ZM284.738 94.2207C284.738 93.9993 284.706 93.8008 284.641 93.625C284.576 93.4427 284.455 93.2734 284.279 93.1172C284.104 92.9609 283.85 92.8047 283.518 92.6484C283.192 92.4857 282.762 92.3164 282.229 92.1406C281.604 91.9323 281.001 91.6979 280.422 91.4375C279.842 91.1706 279.325 90.8613 278.869 90.5098C278.413 90.1517 278.052 89.735 277.785 89.2598C277.518 88.778 277.385 88.2181 277.385 87.5801C277.385 86.9681 277.521 86.418 277.795 85.9297C278.068 85.4349 278.449 85.015 278.938 84.6699C279.432 84.3184 280.012 84.0514 280.676 83.8691C281.34 83.6803 282.066 83.5859 282.854 83.5859C283.895 83.5859 284.813 83.7682 285.607 84.1328C286.408 84.4909 287.033 85.002 287.482 85.666C287.938 86.3236 288.166 87.1016 288.166 88H284.758C284.758 87.6419 284.683 87.3262 284.533 87.0527C284.39 86.7793 284.172 86.5645 283.879 86.4082C283.586 86.252 283.218 86.1738 282.775 86.1738C282.346 86.1738 281.984 86.2389 281.691 86.3691C281.398 86.4993 281.177 86.6751 281.027 86.8965C280.878 87.1113 280.803 87.349 280.803 87.6094C280.803 87.8242 280.861 88.0195 280.979 88.1953C281.102 88.3646 281.275 88.5241 281.496 88.6738C281.724 88.8236 281.997 88.9668 282.316 89.1035C282.642 89.2402 283.007 89.3737 283.41 89.5039C284.165 89.7448 284.836 90.015 285.422 90.3145C286.014 90.6074 286.512 90.9427 286.916 91.3203C287.326 91.6914 287.635 92.1146 287.844 92.5898C288.059 93.0651 288.166 93.6022 288.166 94.2012C288.166 94.8392 288.042 95.4056 287.795 95.9004C287.548 96.3952 287.193 96.8151 286.73 97.1602C286.268 97.4987 285.715 97.7559 285.07 97.9316C284.426 98.1074 283.706 98.1953 282.912 98.1953C282.183 98.1953 281.464 98.1042 280.754 97.9219C280.051 97.7331 279.413 97.4466 278.84 97.0625C278.267 96.6719 277.808 96.1738 277.463 95.5684C277.124 94.9564 276.955 94.2305 276.955 93.3906H280.393C280.393 93.8073 280.448 94.1589 280.559 94.4453C280.669 94.7318 280.832 94.9629 281.047 95.1387C281.262 95.3079 281.525 95.4316 281.838 95.5098C282.15 95.5814 282.508 95.6172 282.912 95.6172C283.348 95.6172 283.7 95.5553 283.967 95.4316C284.234 95.3014 284.429 95.1322 284.553 94.9238C284.676 94.709 284.738 94.4746 284.738 94.2207Z" fill="black"/>
<path d="M73.1016 160.781V175H69.6738V160.781H73.1016ZM77.3789 160.781V163.428H65.4941V160.781H77.3789ZM88.6191 172.363V175H81.041V172.363H88.6191ZM82.2617 160.781V175H78.834V160.781H82.2617ZM87.6426 166.426V168.975H81.041V166.426H87.6426ZM88.6484 160.781V163.428H81.041V160.781H88.6484ZM93.0039 160.781L95.3281 165.508L97.6523 160.781H101.559L97.5938 167.832L101.666 175H97.7207L95.3281 170.186L92.9355 175H88.9805L93.0625 167.832L89.0879 160.781H93.0039ZM109.684 160.781V175H106.256V160.781H109.684ZM113.961 160.781V163.428H102.076V160.781H113.961ZM127.174 167.607V168.184C127.174 169.271 127.021 170.247 126.715 171.113C126.415 171.973 125.989 172.708 125.436 173.32C124.882 173.926 124.228 174.391 123.473 174.717C122.717 175.036 121.884 175.195 120.973 175.195C120.055 175.195 119.215 175.036 118.453 174.717C117.698 174.391 117.04 173.926 116.48 173.32C115.927 172.708 115.497 171.973 115.191 171.113C114.892 170.247 114.742 169.271 114.742 168.184V167.607C114.742 166.52 114.892 165.544 115.191 164.678C115.497 163.812 115.924 163.076 116.471 162.471C117.024 161.859 117.678 161.393 118.434 161.074C119.195 160.749 120.035 160.586 120.953 160.586C121.865 160.586 122.698 160.749 123.453 161.074C124.215 161.393 124.872 161.859 125.426 162.471C125.979 163.076 126.409 163.812 126.715 164.678C127.021 165.544 127.174 166.52 127.174 167.607ZM123.697 168.184V167.588C123.697 166.885 123.635 166.266 123.512 165.732C123.395 165.192 123.219 164.74 122.984 164.375C122.75 164.01 122.46 163.737 122.115 163.555C121.777 163.366 121.389 163.271 120.953 163.271C120.497 163.271 120.1 163.366 119.762 163.555C119.423 163.737 119.14 164.01 118.912 164.375C118.684 164.74 118.512 165.192 118.395 165.732C118.284 166.266 118.229 166.885 118.229 167.588V168.184C118.229 168.88 118.284 169.499 118.395 170.039C118.512 170.573 118.684 171.025 118.912 171.396C119.146 171.768 119.433 172.048 119.771 172.236C120.117 172.425 120.517 172.52 120.973 172.52C121.409 172.52 121.796 172.425 122.135 172.236C122.473 172.048 122.757 171.768 122.984 171.396C123.219 171.025 123.395 170.573 123.512 170.039C123.635 169.499 123.697 168.88 123.697 168.184Z" fill="white"/>
<path d="M73.1016 276.781V291H69.6738V276.781H73.1016ZM77.3789 276.781V279.428H65.4941V276.781H77.3789ZM88.6191 288.363V291H81.041V288.363H88.6191ZM82.2617 276.781V291H78.834V276.781H82.2617ZM87.6426 282.426V284.975H81.041V282.426H87.6426ZM88.6484 276.781V279.428H81.041V276.781H88.6484ZM93.0039 276.781L95.3281 281.508L97.6523 276.781H101.559L97.5938 283.832L101.666 291H97.7207L95.3281 286.186L92.9355 291H88.9805L93.0625 283.832L89.0879 276.781H93.0039ZM109.684 276.781V291H106.256V276.781H109.684ZM113.961 276.781V279.428H102.076V276.781H113.961ZM127.174 283.607V284.184C127.174 285.271 127.021 286.247 126.715 287.113C126.415 287.973 125.989 288.708 125.436 289.32C124.882 289.926 124.228 290.391 123.473 290.717C122.717 291.036 121.884 291.195 120.973 291.195C120.055 291.195 119.215 291.036 118.453 290.717C117.698 290.391 117.04 289.926 116.48 289.32C115.927 288.708 115.497 287.973 115.191 287.113C114.892 286.247 114.742 285.271 114.742 284.184V283.607C114.742 282.52 114.892 281.544 115.191 280.678C115.497 279.812 115.924 279.076 116.471 278.471C117.024 277.859 117.678 277.393 118.434 277.074C119.195 276.749 120.035 276.586 120.953 276.586C121.865 276.586 122.698 276.749 123.453 277.074C124.215 277.393 124.872 277.859 125.426 278.471C125.979 279.076 126.409 279.812 126.715 280.678C127.021 281.544 127.174 282.52 127.174 283.607ZM123.697 284.184V283.588C123.697 282.885 123.635 282.266 123.512 281.732C123.395 281.192 123.219 280.74 122.984 280.375C122.75 280.01 122.46 279.737 122.115 279.555C121.777 279.366 121.389 279.271 120.953 279.271C120.497 279.271 120.1 279.366 119.762 279.555C119.423 279.737 119.14 280.01 118.912 280.375C118.684 280.74 118.512 281.192 118.395 281.732C118.284 282.266 118.229 282.885 118.229 283.588V284.184C118.229 284.88 118.284 285.499 118.395 286.039C118.512 286.573 118.684 287.025 118.912 287.396C119.146 287.768 119.433 288.048 119.771 288.236C120.117 288.425 120.517 288.52 120.973 288.52C121.409 288.52 121.796 288.425 122.135 288.236C122.473 288.048 122.757 287.768 122.984 287.396C123.219 287.025 123.395 286.573 123.512 286.039C123.635 285.499 123.697 284.88 123.697 284.184Z" fill="white"/>
<path d="M73.1016 392.781V407H69.6738V392.781H73.1016ZM77.3789 392.781V395.428H65.4941V392.781H77.3789ZM88.6191 404.363V407H81.041V404.363H88.6191ZM82.2617 392.781V407H78.834V392.781H82.2617ZM87.6426 398.426V400.975H81.041V398.426H87.6426ZM88.6484 392.781V395.428H81.041V392.781H88.6484ZM93.0039 392.781L95.3281 397.508L97.6523 392.781H101.559L97.5938 399.832L101.666 407H97.7207L95.3281 402.186L92.9355 407H88.9805L93.0625 399.832L89.0879 392.781H93.0039ZM109.684 392.781V407H106.256V392.781H109.684ZM113.961 392.781V395.428H102.076V392.781H113.961ZM127.174 399.607V400.184C127.174 401.271 127.021 402.247 126.715 403.113C126.415 403.973 125.989 404.708 125.436 405.32C124.882 405.926 124.228 406.391 123.473 406.717C122.717 407.036 121.884 407.195 120.973 407.195C120.055 407.195 119.215 407.036 118.453 406.717C117.698 406.391 117.04 405.926 116.48 405.32C115.927 404.708 115.497 403.973 115.191 403.113C114.892 402.247 114.742 401.271 114.742 400.184V399.607C114.742 398.52 114.892 397.544 115.191 396.678C115.497 395.812 115.924 395.076 116.471 394.471C117.024 393.859 117.678 393.393 118.434 393.074C119.195 392.749 120.035 392.586 120.953 392.586C121.865 392.586 122.698 392.749 123.453 393.074C124.215 393.393 124.872 393.859 125.426 394.471C125.979 395.076 126.409 395.812 126.715 396.678C127.021 397.544 127.174 398.52 127.174 399.607ZM123.697 400.184V399.588C123.697 398.885 123.635 398.266 123.512 397.732C123.395 397.192 123.219 396.74 122.984 396.375C122.75 396.01 122.46 395.737 122.115 395.555C121.777 395.366 121.389 395.271 120.953 395.271C120.497 395.271 120.1 395.366 119.762 395.555C119.423 395.737 119.14 396.01 118.912 396.375C118.684 396.74 118.512 397.192 118.395 397.732C118.284 398.266 118.229 398.885 118.229 399.588V400.184C118.229 400.88 118.284 401.499 118.395 402.039C118.512 402.573 118.684 403.025 118.912 403.396C119.146 403.768 119.433 404.048 119.771 404.236C120.117 404.425 120.517 404.52 120.973 404.52C121.409 404.52 121.796 404.425 122.135 404.236C122.473 404.048 122.757 403.768 122.984 403.396C123.219 403.025 123.395 402.573 123.512 402.039C123.635 401.499 123.697 400.88 123.697 400.184Z" fill="white"/>
<path d="M73.1016 508.781V523H69.6738V508.781H73.1016ZM77.3789 508.781V511.428H65.4941V508.781H77.3789ZM88.6191 520.363V523H81.041V520.363H88.6191ZM82.2617 508.781V523H78.834V508.781H82.2617ZM87.6426 514.426V516.975H81.041V514.426H87.6426ZM88.6484 508.781V511.428H81.041V508.781H88.6484ZM93.0039 508.781L95.3281 513.508L97.6523 508.781H101.559L97.5938 515.832L101.666 523H97.7207L95.3281 518.186L92.9355 523H88.9805L93.0625 515.832L89.0879 508.781H93.0039ZM109.684 508.781V523H106.256V508.781H109.684ZM113.961 508.781V511.428H102.076V508.781H113.961ZM127.174 515.607V516.184C127.174 517.271 127.021 518.247 126.715 519.113C126.415 519.973 125.989 520.708 125.436 521.32C124.882 521.926 124.228 522.391 123.473 522.717C122.717 523.036 121.884 523.195 120.973 523.195C120.055 523.195 119.215 523.036 118.453 522.717C117.698 522.391 117.04 521.926 116.48 521.32C115.927 520.708 115.497 519.973 115.191 519.113C114.892 518.247 114.742 517.271 114.742 516.184V515.607C114.742 514.52 114.892 513.544 115.191 512.678C115.497 511.812 115.924 511.076 116.471 510.471C117.024 509.859 117.678 509.393 118.434 509.074C119.195 508.749 120.035 508.586 120.953 508.586C121.865 508.586 122.698 508.749 123.453 509.074C124.215 509.393 124.872 509.859 125.426 510.471C125.979 511.076 126.409 511.812 126.715 512.678C127.021 513.544 127.174 514.52 127.174 515.607ZM123.697 516.184V515.588C123.697 514.885 123.635 514.266 123.512 513.732C123.395 513.192 123.219 512.74 122.984 512.375C122.75 512.01 122.46 511.737 122.115 511.555C121.777 511.366 121.389 511.271 120.953 511.271C120.497 511.271 120.1 511.366 119.762 511.555C119.423 511.737 119.14 512.01 118.912 512.375C118.684 512.74 118.512 513.192 118.395 513.732C118.284 514.266 118.229 514.885 118.229 515.588V516.184C118.229 516.88 118.284 517.499 118.395 518.039C118.512 518.573 118.684 519.025 118.912 519.396C119.146 519.768 119.433 520.048 119.771 520.236C120.117 520.425 120.517 520.52 120.973 520.52C121.409 520.52 121.796 520.425 122.135 520.236C122.473 520.048 122.757 519.768 122.984 519.396C123.219 519.025 123.395 518.573 123.512 518.039C123.635 517.499 123.697 516.88 123.697 516.184Z" fill="white"/>
<path d="M73.1016 624.781V639H69.6738V624.781H73.1016ZM77.3789 624.781V627.428H65.4941V624.781H77.3789ZM88.6191 636.363V639H81.041V636.363H88.6191ZM82.2617 624.781V639H78.834V624.781H82.2617ZM87.6426 630.426V632.975H81.041V630.426H87.6426ZM88.6484 624.781V627.428H81.041V624.781H88.6484ZM93.0039 624.781L95.3281 629.508L97.6523 624.781H101.559L97.5938 631.832L101.666 639H97.7207L95.3281 634.186L92.9355 639H88.9805L93.0625 631.832L89.0879 624.781H93.0039ZM109.684 624.781V639H106.256V624.781H109.684ZM113.961 624.781V627.428H102.076V624.781H113.961ZM127.174 631.607V632.184C127.174 633.271 127.021 634.247 126.715 635.113C126.415 635.973 125.989 636.708 125.436 637.32C124.882 637.926 124.228 638.391 123.473 638.717C122.717 639.036 121.884 639.195 120.973 639.195C120.055 639.195 119.215 639.036 118.453 638.717C117.698 638.391 117.04 637.926 116.48 637.32C115.927 636.708 115.497 635.973 115.191 635.113C114.892 634.247 114.742 633.271 114.742 632.184V631.607C114.742 630.52 114.892 629.544 115.191 628.678C115.497 627.812 115.924 627.076 116.471 626.471C117.024 625.859 117.678 625.393 118.434 625.074C119.195 624.749 120.035 624.586 120.953 624.586C121.865 624.586 122.698 624.749 123.453 625.074C124.215 625.393 124.872 625.859 125.426 626.471C125.979 627.076 126.409 627.812 126.715 628.678C127.021 629.544 127.174 630.52 127.174 631.607ZM123.697 632.184V631.588C123.697 630.885 123.635 630.266 123.512 629.732C123.395 629.192 123.219 628.74 122.984 628.375C122.75 628.01 122.46 627.737 122.115 627.555C121.777 627.366 121.389 627.271 120.953 627.271C120.497 627.271 120.1 627.366 119.762 627.555C119.423 627.737 119.14 628.01 118.912 628.375C118.684 628.74 118.512 629.192 118.395 629.732C118.284 630.266 118.229 630.885 118.229 631.588V632.184C118.229 632.88 118.284 633.499 118.395 634.039C118.512 634.573 118.684 635.025 118.912 635.396C119.146 635.768 119.433 636.048 119.771 636.236C120.117 636.425 120.517 636.52 120.973 636.52C121.409 636.52 121.796 636.425 122.135 636.236C122.473 636.048 122.757 635.768 122.984 635.396C123.219 635.025 123.395 634.573 123.512 634.039C123.635 633.499 123.697 632.88 123.697 632.184Z" fill="white"/>
<rect opacity="0.8" x="182.37" y="131.37" width="32.0482" height="32.0482" fill="white" stroke="black" stroke-width="2.73917"/>
<rect opacity="0.8" x="182.37" y="246.37" width="32.0482" height="32.0482" fill="white" stroke="black" stroke-width="2.73917"/>
<rect opacity="0.8" x="182.37" y="361.37" width="32.0482" height="32.0482" fill="white" stroke="black" stroke-width="2.73917"/>
<rect opacity="0.8" x="182.37" y="476.37" width="32.0482" height="32.0482" fill="white" stroke="black" stroke-width="2.73917"/>
<rect opacity="0.8" x="182.37" y="591.37" width="32.0482" height="32.0482" fill="white" stroke="black" stroke-width="2.73917"/>
<rect opacity="0.8" x="229.37" y="131.37" width="32.0482" height="32.0482" rx="16.0241" fill="#FFDC56" stroke="black" stroke-width="2.73917"/>
<path d="M249.64 143.285L250.187 143.833M250.187 143.833L252.379 146.024L244.161 154.242H238.683V148.763L246.764 140.683L250.187 143.833Z" stroke="white" stroke-width="5.47833"/>
<rect opacity="0.8" x="229.37" y="246.37" width="32.0482" height="32.0482" rx="16.0241" fill="#FFDC56" stroke="black" stroke-width="2.73917"/>
<path d="M249.64 258.285L250.187 258.833M250.187 258.833L252.379 261.024L244.161 269.242H238.683V263.763L246.764 255.683L250.187 258.833Z" stroke="white" stroke-width="5.47833"/>
<rect opacity="0.8" x="229.37" y="361.37" width="32.0482" height="32.0482" rx="16.0241" fill="#FFDC56" stroke="black" stroke-width="2.73917"/>
<path d="M249.64 373.285L250.187 373.833M250.187 373.833L252.379 376.024L244.161 384.242H238.683V378.763L246.764 370.683L250.187 373.833Z" stroke="white" stroke-width="5.47833"/>
<rect opacity="0.8" x="229.37" y="476.37" width="32.0482" height="32.0482" rx="16.0241" fill="#FFDC56" stroke="black" stroke-width="2.73917"/>
<path d="M249.64 488.285L250.187 488.833M250.187 488.833L252.379 491.024L244.161 499.242H238.683V493.763L246.764 485.683L250.187 488.833Z" stroke="white" stroke-width="5.47833"/>
<rect opacity="0.8" x="229.37" y="591.37" width="32.0482" height="32.0482" rx="16.0241" fill="#FFDC56" stroke="black" stroke-width="2.73917"/>
<path d="M249.64 603.285L250.187 603.833M250.187 603.833L252.379 606.024L244.161 614.242H238.683V608.763L246.764 600.683L250.187 603.833Z" stroke="white" stroke-width="5.47833"/>
<rect opacity="0.8" x="229.37" y="174.37" width="32.0482" height="32.0482" rx="16.0241" fill="#FF5527" stroke="black" stroke-width="2.73917"/>
<path fill-rule="evenodd" clip-rule="evenodd" d="M240.718 181.389C240.013 181.481 239.641 181.65 239.375 181.91C239.11 182.171 238.937 182.537 238.842 183.227C238.744 183.937 238.743 184.878 238.743 186.228V193.682C239.087 193.447 239.469 193.272 239.872 193.166C240.332 193.045 240.868 193.045 241.653 193.046H252.66V186.228C252.66 184.878 252.659 183.937 252.561 183.227C252.466 182.537 252.293 182.171 252.028 181.91C251.762 181.65 251.389 181.481 250.685 181.389C249.959 181.293 248.999 181.291 247.621 181.291H243.782C242.404 181.291 241.443 181.293 240.718 181.389ZM241.142 185.288C241.142 184.898 241.464 184.583 241.862 184.583H249.541C249.73 184.581 249.911 184.654 250.046 184.786C250.181 184.918 250.258 185.098 250.26 185.287C250.258 185.476 250.181 185.656 250.047 185.789C249.912 185.921 249.73 185.994 249.541 185.993H241.862C241.673 185.994 241.491 185.921 241.357 185.789C241.222 185.657 241.145 185.477 241.142 185.288ZM241.862 187.874C241.673 187.873 241.491 187.946 241.357 188.078C241.222 188.21 241.145 188.39 241.142 188.579C241.142 188.968 241.464 189.284 241.862 189.284H246.661C246.85 189.286 247.032 189.213 247.167 189.081C247.302 188.949 247.379 188.768 247.381 188.58C247.379 188.391 247.302 188.21 247.167 188.078C247.032 187.946 246.85 187.872 246.661 187.874H241.862Z" fill="white"/>
<path d="M241.763 194.456H252.66C252.658 195.439 252.642 196.173 252.562 196.753C252.467 197.443 252.294 197.808 252.029 198.069C251.762 198.329 251.39 198.499 250.686 198.591C249.96 198.686 249 198.688 247.622 198.688H243.782C242.404 198.688 241.443 198.686 240.718 198.592C240.013 198.499 239.641 198.329 239.375 198.069C239.11 197.808 238.936 197.443 238.842 196.753C238.806 196.492 238.782 196.199 238.769 195.866C238.888 195.54 239.085 195.248 239.342 195.015C239.599 194.782 239.909 194.615 240.245 194.529C240.497 194.462 240.825 194.456 241.763 194.456Z" fill="white"/>
<rect opacity="0.8" x="229.37" y="289.37" width="32.0482" height="32.0482" rx="16.0241" fill="#FF5527" stroke="black" stroke-width="2.73917"/>
<path fill-rule="evenodd" clip-rule="evenodd" d="M240.718 296.389C240.013 296.481 239.641 296.65 239.375 296.91C239.11 297.171 238.937 297.537 238.842 298.227C238.744 298.937 238.743 299.878 238.743 301.228V308.682C239.087 308.447 239.469 308.272 239.872 308.166C240.332 308.045 240.868 308.045 241.653 308.046H252.66V301.228C252.66 299.878 252.659 298.937 252.561 298.227C252.466 297.537 252.293 297.171 252.028 296.91C251.762 296.65 251.389 296.481 250.685 296.389C249.959 296.293 248.999 296.291 247.621 296.291H243.782C242.404 296.291 241.443 296.293 240.718 296.389ZM241.142 300.288C241.142 299.898 241.464 299.583 241.862 299.583H249.541C249.73 299.581 249.911 299.654 250.046 299.786C250.181 299.918 250.258 300.098 250.26 300.287C250.258 300.476 250.181 300.656 250.047 300.789C249.912 300.921 249.73 300.994 249.541 300.993H241.862C241.673 300.994 241.491 300.921 241.357 300.789C241.222 300.657 241.145 300.477 241.142 300.288ZM241.862 302.874C241.673 302.873 241.491 302.946 241.357 303.078C241.222 303.21 241.145 303.39 241.142 303.579C241.142 303.968 241.464 304.284 241.862 304.284H246.661C246.85 304.286 247.032 304.213 247.167 304.081C247.302 303.949 247.379 303.768 247.381 303.58C247.379 303.391 247.302 303.21 247.167 303.078C247.032 302.946 246.85 302.872 246.661 302.874H241.862Z" fill="white"/>
<path d="M241.763 309.456H252.66C252.658 310.439 252.642 311.173 252.562 311.753C252.467 312.443 252.294 312.808 252.029 313.069C251.762 313.329 251.39 313.499 250.686 313.591C249.96 313.686 249 313.688 247.622 313.688H243.782C242.404 313.688 241.443 313.686 240.718 313.592C240.013 313.499 239.641 313.329 239.375 313.069C239.11 312.808 238.936 312.443 238.842 311.753C238.806 311.492 238.782 311.199 238.769 310.866C238.888 310.54 239.085 310.248 239.342 310.015C239.599 309.782 239.909 309.615 240.245 309.529C240.497 309.462 240.825 309.456 241.763 309.456Z" fill="white"/>
<rect opacity="0.8" x="229.37" y="404.37" width="32.0482" height="32.0482" rx="16.0241" fill="#FF5527" stroke="black" stroke-width="2.73917"/>
<path fill-rule="evenodd" clip-rule="evenodd" d="M240.718 411.389C240.013 411.481 239.641 411.65 239.375 411.91C239.11 412.171 238.937 412.537 238.842 413.227C238.744 413.937 238.743 414.878 238.743 416.228V423.682C239.087 423.447 239.469 423.272 239.872 423.166C240.332 423.045 240.868 423.045 241.653 423.046H252.66V416.228C252.66 414.878 252.659 413.937 252.561 413.227C252.466 412.537 252.293 412.171 252.028 411.91C251.762 411.65 251.389 411.481 250.685 411.389C249.959 411.293 248.999 411.291 247.621 411.291H243.782C242.404 411.291 241.443 411.293 240.718 411.389ZM241.142 415.288C241.142 414.898 241.464 414.583 241.862 414.583H249.541C249.73 414.581 249.911 414.654 250.046 414.786C250.181 414.918 250.258 415.098 250.26 415.287C250.258 415.476 250.181 415.656 250.047 415.789C249.912 415.921 249.73 415.994 249.541 415.993H241.862C241.673 415.994 241.491 415.921 241.357 415.789C241.222 415.657 241.145 415.477 241.142 415.288ZM241.862 417.874C241.673 417.873 241.491 417.946 241.357 418.078C241.222 418.21 241.145 418.39 241.142 418.579C241.142 418.968 241.464 419.284 241.862 419.284H246.661C246.85 419.286 247.032 419.213 247.167 419.081C247.302 418.949 247.379 418.768 247.381 418.58C247.379 418.391 247.302 418.21 247.167 418.078C247.032 417.946 246.85 417.872 246.661 417.874H241.862Z" fill="white"/>
<path d="M241.763 424.456H252.66C252.658 425.439 252.642 426.173 252.562 426.753C252.467 427.443 252.294 427.808 252.029 428.069C251.762 428.329 251.39 428.499 250.686 428.591C249.96 428.686 249 428.688 247.622 428.688H243.782C242.404 428.688 241.443 428.686 240.718 428.592C240.013 428.499 239.641 428.329 239.375 428.069C239.11 427.808 238.936 427.443 238.842 426.753C238.806 426.492 238.782 426.199 238.769 425.865C238.888 425.54 239.085 425.248 239.342 425.015C239.599 424.782 239.909 424.615 240.245 424.528C240.497 424.462 240.825 424.456 241.763 424.456Z" fill="white"/>
<rect opacity="0.8" x="229.37" y="519.37" width="32.0482" height="32.0482" rx="16.0241" fill="#FF5527" stroke="black" stroke-width="2.73917"/>
<path fill-rule="evenodd" clip-rule="evenodd" d="M240.718 526.389C240.013 526.481 239.641 526.65 239.375 526.91C239.11 527.171 238.937 527.537 238.842 528.227C238.744 528.937 238.743 529.878 238.743 531.228V538.682C239.087 538.447 239.469 538.272 239.872 538.166C240.332 538.046 240.868 538.046 241.653 538.046H252.66V531.228C252.66 529.878 252.659 528.937 252.561 528.227C252.466 527.537 252.293 527.171 252.028 526.91C251.762 526.65 251.389 526.481 250.685 526.389C249.959 526.293 248.999 526.291 247.621 526.291H243.782C242.404 526.291 241.443 526.293 240.718 526.389ZM241.142 530.288C241.142 529.898 241.464 529.583 241.862 529.583H249.541C249.73 529.581 249.911 529.654 250.046 529.786C250.181 529.918 250.258 530.099 250.26 530.287C250.258 530.476 250.181 530.656 250.047 530.789C249.912 530.921 249.73 530.994 249.541 530.993H241.862C241.673 530.994 241.491 530.921 241.357 530.789C241.222 530.657 241.145 530.477 241.142 530.288ZM241.862 532.874C241.673 532.873 241.491 532.946 241.357 533.078C241.222 533.21 241.145 533.39 241.142 533.579C241.142 533.968 241.464 534.284 241.862 534.284H246.661C246.85 534.286 247.032 534.213 247.167 534.081C247.302 533.949 247.379 533.769 247.381 533.58C247.379 533.391 247.302 533.21 247.167 533.078C247.032 532.946 246.85 532.872 246.661 532.874H241.862Z" fill="white"/>
<path d="M241.763 539.456H252.66C252.658 540.439 252.642 541.174 252.562 541.753C252.467 542.443 252.294 542.808 252.029 543.069C251.762 543.329 251.39 543.499 250.686 543.591C249.96 543.687 249 543.688 247.622 543.688H243.782C242.404 543.688 241.443 543.687 240.718 543.592C240.013 543.499 239.641 543.329 239.375 543.069C239.11 542.808 238.936 542.443 238.842 541.753C238.806 541.492 238.782 541.199 238.769 540.866C238.888 540.54 239.085 540.248 239.342 540.015C239.599 539.782 239.909 539.615 240.245 539.529C240.497 539.463 240.825 539.456 241.763 539.456Z" fill="white"/>
<rect opacity="0.8" x="229.37" y="634.37" width="32.0482" height="32.0482" rx="16.0241" fill="#FF5527" stroke="black" stroke-width="2.73917"/>
<path fill-rule="evenodd" clip-rule="evenodd" d="M240.718 641.389C240.013 641.481 239.641 641.65 239.375 641.91C239.11 642.171 238.937 642.537 238.842 643.227C238.744 643.937 238.743 644.878 238.743 646.228V653.682C239.087 653.447 239.469 653.272 239.872 653.166C240.332 653.046 240.868 653.046 241.653 653.046H252.66V646.228C252.66 644.878 252.659 643.937 252.561 643.227C252.466 642.537 252.293 642.171 252.028 641.91C251.762 641.65 251.389 641.481 250.685 641.389C249.959 641.293 248.999 641.291 247.621 641.291H243.782C242.404 641.291 241.443 641.293 240.718 641.389ZM241.142 645.288C241.142 644.898 241.464 644.583 241.862 644.583H249.541C249.73 644.581 249.911 644.654 250.046 644.786C250.181 644.918 250.258 645.099 250.26 645.287C250.258 645.476 250.181 645.656 250.047 645.789C249.912 645.921 249.73 645.994 249.541 645.993H241.862C241.673 645.994 241.491 645.921 241.357 645.789C241.222 645.657 241.145 645.477 241.142 645.288ZM241.862 647.874C241.673 647.873 241.491 647.946 241.357 648.078C241.222 648.21 241.145 648.39 241.142 648.579C241.142 648.968 241.464 649.284 241.862 649.284H246.661C246.85 649.286 247.032 649.213 247.167 649.081C247.302 648.949 247.379 648.769 247.381 648.58C247.379 648.391 247.302 648.21 247.167 648.078C247.032 647.946 246.85 647.872 246.661 647.874H241.862Z" fill="white"/>
<path d="M241.763 654.456H252.66C252.658 655.439 252.642 656.174 252.562 656.753C252.467 657.443 252.294 657.808 252.029 658.069C251.762 658.329 251.39 658.499 250.686 658.591C249.96 658.687 249 658.688 247.622 658.688H243.782C242.404 658.688 241.443 658.687 240.718 658.592C240.013 658.499 239.641 658.329 239.375 658.069C239.11 657.808 238.936 657.443 238.842 656.753C238.806 656.492 238.782 656.199 238.769 655.866C238.888 655.54 239.085 655.248 239.342 655.015C239.599 654.782 239.909 654.615 240.245 654.529C240.497 654.463 240.825 654.456 241.763 654.456Z" fill="white"/>
<rect opacity="0.8" x="276.37" y="131.37" width="32.0482" height="32.0482" rx="16.0241" fill="#8E0800" stroke="black" stroke-width="2.73917"/>
<path d="M285.683 140.683L292.531 147.531L299.379 154.379M299.379 140.683L285.683 154.379" stroke="white" stroke-width="5.47833"/>
<rect opacity="0.8" x="276.37" y="246.37" width="32.0482" height="32.0482" rx="16.0241" fill="#8E0800" stroke="black" stroke-width="2.73917"/>
<path d="M285.683 255.683L292.531 262.531L299.379 269.379M299.379 255.683L285.683 269.379" stroke="white" stroke-width="5.47833"/>
<rect opacity="0.8" x="276.37" y="361.37" width="32.0482" height="32.0482" rx="16.0241" fill="#8E0800" stroke="black" stroke-width="2.73917"/>
<path d="M285.683 370.683L292.531 377.531L299.379 384.379M299.379 370.683L285.683 384.379" stroke="white" stroke-width="5.47833"/>
<rect opacity="0.8" x="276.37" y="476.37" width="32.0482" height="32.0482" rx="16.0241" fill="#8E0800" stroke="black" stroke-width="2.73917"/>
<path d="M285.683 485.683L292.531 492.531L299.379 499.379M299.379 485.683L285.683 499.379" stroke="white" stroke-width="5.47833"/>
<rect opacity="0.8" x="276.37" y="591.37" width="32.0482" height="32.0482" rx="16.0241" fill="#8E0800" stroke="black" stroke-width="2.73917"/>
<path d="M285.683 600.683L292.531 607.531L299.379 614.379M299.379 600.683L285.683 614.379" stroke="white" stroke-width="5.47833"/>
</svg>
