<svg width="150" height="150" viewBox="0 0 150 150" fill="none" xmlns="http://www.w3.org/2000/svg">
<rect x="2.5" y="2.5" width="145" height="145" rx="72.5" fill="#FF5527"/>
<path d="M38.2188 82L40.6051 67.4545H42.8778L40.4915 82H38.2188ZM31.706 78.392L32.0824 76.1193H43.446L43.0696 78.392H31.706ZM33.1051 82L35.4915 67.4545H37.7642L35.3778 82H33.1051ZM32.5369 73.3352L32.9205 71.0625H44.2841L43.9006 73.3352H32.5369ZM45.7525 82V67.4545H55.3832V69.9901H48.8278V73.456H54.744V75.9915H48.8278V82H45.7525ZM57.4517 82V67.4545H67.0824V69.9901H60.527V73.456H66.4432V75.9915H60.527V82H57.4517ZM74.3782 82.1989C73.3744 82.1989 72.4795 82.0142 71.6935 81.6449C70.9123 81.2756 70.292 80.7666 69.8327 80.1179C69.3735 79.4692 69.1344 78.7259 69.1154 77.8878H72.0984C72.1315 78.4512 72.3683 78.9081 72.8086 79.2585C73.2489 79.6089 73.7721 79.7841 74.3782 79.7841C74.8612 79.7841 75.2873 79.6776 75.6566 79.4645C76.0307 79.2467 76.3219 78.946 76.5302 78.5625C76.7433 78.1742 76.8498 77.7292 76.8498 77.2273C76.8498 76.7159 76.7409 76.2661 76.5231 75.8778C76.31 75.4896 76.0141 75.1866 75.6353 74.9688C75.2565 74.7509 74.8233 74.6397 74.3356 74.6349C73.9094 74.6349 73.4951 74.7225 73.0927 74.8977C72.695 75.0729 72.3848 75.312 72.1623 75.6151L69.4279 75.125L70.1168 67.4545H79.0089V69.9688H72.6523L72.2759 73.6122H72.3612C72.6168 73.2524 73.0027 72.9541 73.5188 72.7173C74.0349 72.4806 74.6126 72.3622 75.2518 72.3622C76.1277 72.3622 76.909 72.5682 77.5955 72.9801C78.2821 73.392 78.8242 73.9579 79.2219 74.6776C79.6197 75.3925 79.8162 76.2164 79.8114 77.1491C79.8162 78.1293 79.5889 79.0005 79.1296 79.7628C78.6751 80.5204 78.0382 81.117 77.2191 81.5526C76.4047 81.9834 75.4577 82.1989 74.3782 82.1989ZM87.2688 82.1989C86.265 82.1989 85.3701 82.0142 84.5842 81.6449C83.8029 81.2756 83.1826 80.7666 82.7234 80.1179C82.2641 79.4692 82.025 78.7259 82.006 77.8878H84.989C85.0221 78.4512 85.2589 78.9081 85.6992 79.2585C86.1396 79.6089 86.6628 79.7841 87.2688 79.7841C87.7518 79.7841 88.1779 79.6776 88.5472 79.4645C88.9213 79.2467 89.2125 78.946 89.4208 78.5625C89.6339 78.1742 89.7404 77.7292 89.7404 77.2273C89.7404 76.7159 89.6315 76.2661 89.4137 75.8778C89.2006 75.4896 88.9047 75.1866 88.5259 74.9688C88.1471 74.7509 87.7139 74.6397 87.2262 74.6349C86.8001 74.6349 86.3858 74.7225 85.9833 74.8977C85.5856 75.0729 85.2754 75.312 85.0529 75.6151L82.3185 75.125L83.0075 67.4545H91.8995V69.9688H85.543L85.1665 73.6122H85.2518C85.5075 73.2524 85.8933 72.9541 86.4094 72.7173C86.9255 72.4806 87.5032 72.3622 88.1424 72.3622C89.0183 72.3622 89.7996 72.5682 90.4862 72.9801C91.1727 73.392 91.7148 73.9579 92.1126 74.6776C92.5103 75.3925 92.7068 76.2164 92.7021 77.1491C92.7068 78.1293 92.4795 79.0005 92.0202 79.7628C91.5657 80.5204 90.9289 81.117 90.1097 81.5526C89.2953 81.9834 88.3484 82.1989 87.2688 82.1989ZM94.8469 82V79.7841L100.025 74.9901C100.465 74.5639 100.834 74.1804 101.132 73.8395C101.435 73.4986 101.665 73.1648 101.821 72.8381C101.978 72.5066 102.056 72.1491 102.056 71.7656C102.056 71.3395 101.959 70.9725 101.765 70.6648C101.57 70.3523 101.305 70.1132 100.969 69.9474C100.633 69.777 100.252 69.6918 99.8256 69.6918C99.3806 69.6918 98.9923 69.7817 98.6609 69.9616C98.3294 70.1416 98.0737 70.3996 97.8938 70.7358C97.7139 71.072 97.6239 71.4721 97.6239 71.9361H94.7049C94.7049 70.9844 94.9203 70.1581 95.3512 69.4574C95.7821 68.7566 96.3858 68.2145 97.1623 67.831C97.9388 67.4474 98.8337 67.2557 99.8469 67.2557C100.889 67.2557 101.795 67.4403 102.567 67.8097C103.344 68.1742 103.947 68.6809 104.378 69.3295C104.809 69.9782 105.025 70.7216 105.025 71.5597C105.025 72.1089 104.916 72.651 104.698 73.1861C104.485 73.7211 104.104 74.3153 103.554 74.9688C103.005 75.6174 102.231 76.3963 101.232 77.3054L99.1083 79.3864V79.4858H105.216V82H94.8469ZM108.02 82L114.05 70.0682V69.9688H107.026V67.4545H117.232V70.0043L111.195 82H108.02Z" fill="white"/>
<rect x="2.5" y="2.5" width="145" height="145" rx="72.5" stroke="black" stroke-width="5"/>
</svg>
