<svg width="150" height="150" viewBox="0 0 150 150" fill="none" xmlns="http://www.w3.org/2000/svg">
<rect x="2.5" y="2.5" width="145" height="145" rx="72.5" fill="#A53933"/>
<path d="M34.7188 82L37.1051 67.4545H39.3778L36.9915 82H34.7188ZM28.206 78.392L28.5824 76.1193H39.946L39.5696 78.392H28.206ZM29.6051 82L31.9915 67.4545H34.2642L31.8778 82H29.6051ZM29.0369 73.3352L29.4205 71.0625H40.7841L40.4006 73.3352H29.0369ZM44.7596 82H41.4641L46.4854 67.4545H50.4485L55.4627 82H52.1673L48.5238 70.7784H48.4102L44.7596 82ZM44.5536 76.2827H52.3377V78.6832H44.5536V76.2827ZM62.4407 82.1989C61.4369 82.1989 60.542 82.0142 59.756 81.6449C58.9748 81.2756 58.3545 80.7666 57.8952 80.1179C57.436 79.4692 57.1969 78.7259 57.1779 77.8878H60.1609C60.194 78.4512 60.4308 78.9081 60.8711 79.2585C61.3114 79.6089 61.8346 79.7841 62.4407 79.7841C62.9237 79.7841 63.3498 79.6776 63.7191 79.4645C64.0932 79.2467 64.3844 78.946 64.5927 78.5625C64.8058 78.1742 64.9123 77.7292 64.9123 77.2273C64.9123 76.7159 64.8034 76.2661 64.5856 75.8778C64.3725 75.4896 64.0766 75.1866 63.6978 74.9688C63.319 74.7509 62.8858 74.6397 62.3981 74.6349C61.9719 74.6349 61.5576 74.7225 61.1552 74.8977C60.7575 75.0729 60.4473 75.312 60.2248 75.6151L57.4904 75.125L58.1793 67.4545H67.0714V69.9688H60.7148L60.3384 73.6122H60.4237C60.6793 73.2524 61.0652 72.9541 61.5813 72.7173C62.0974 72.4806 62.6751 72.3622 63.3143 72.3622C64.1902 72.3622 64.9715 72.5682 65.658 72.9801C66.3446 73.392 66.8867 73.9579 67.2844 74.6776C67.6822 75.3925 67.8787 76.2164 67.8739 77.1491C67.8787 78.1293 67.6514 79.0005 67.1921 79.7628C66.7376 80.5204 66.1007 81.117 65.2816 81.5526C64.4672 81.9834 63.5202 82.1989 62.4407 82.1989ZM75.3952 82.1989C74.3346 82.1989 73.39 82.0166 72.5614 81.652C71.7376 81.2827 71.0865 80.776 70.6083 80.1321C70.1348 79.4834 69.891 78.7353 69.8768 77.8878H72.9734C72.9923 78.2429 73.1083 78.5554 73.3214 78.8253C73.5392 79.0904 73.828 79.2964 74.1879 79.4432C74.5477 79.59 74.9525 79.6634 75.4023 79.6634C75.8711 79.6634 76.2854 79.5805 76.6452 79.4148C77.0051 79.2491 77.2868 79.0194 77.4904 78.7259C77.694 78.4323 77.7958 78.0937 77.7958 77.7102C77.7958 77.322 77.6869 76.9787 77.4691 76.6804C77.256 76.3774 76.9483 76.1406 76.5458 75.9702C76.1481 75.7997 75.6746 75.7145 75.1254 75.7145H73.7688V73.456H75.1254C75.5894 73.456 75.9989 73.3755 76.354 73.2145C76.7139 73.0535 76.9933 72.831 77.1921 72.5469C77.391 72.258 77.4904 71.9219 77.4904 71.5384C77.4904 71.1738 77.4028 70.8542 77.2276 70.5795C77.0572 70.3002 76.8157 70.0824 76.5032 69.9261C76.1954 69.7699 75.8356 69.6918 75.4237 69.6918C75.007 69.6918 74.6258 69.7675 74.2802 69.919C73.9345 70.0658 73.6576 70.2765 73.4492 70.5511C73.2409 70.8258 73.1296 71.1477 73.1154 71.517H70.168C70.1822 70.679 70.4213 69.9403 70.8853 69.3011C71.3493 68.6619 71.9743 68.1624 72.7603 67.8026C73.551 67.438 74.4435 67.2557 75.4379 67.2557C76.4416 67.2557 77.32 67.438 78.0728 67.8026C78.8256 68.1671 79.4104 68.6596 79.8271 69.2798C80.2485 69.8954 80.4568 70.5866 80.4521 71.3537C80.4568 72.1681 80.2035 72.8475 79.6921 73.392C79.1855 73.9366 78.525 74.2822 77.7106 74.429V74.5426C78.7807 74.6799 79.5951 75.0516 80.1538 75.6577C80.7172 76.259 80.9966 77.0118 80.9918 77.9162C80.9966 78.7448 80.7575 79.4811 80.2745 80.125C79.7963 80.7689 79.1358 81.2756 78.293 81.6449C77.4502 82.0142 76.4843 82.1989 75.3952 82.1989ZM88.4652 67.2557C89.2133 67.2557 89.933 67.3812 90.6243 67.6321C91.3203 67.883 91.9406 68.2831 92.4851 68.8324C93.0343 69.3816 93.4676 70.1108 93.7848 71.0199C94.1068 71.9242 94.2701 73.0346 94.2749 74.3509C94.2749 75.5866 94.1352 76.6899 93.8558 77.6605C93.5812 78.6264 93.1858 79.4479 92.6697 80.125C92.1536 80.8021 91.531 81.3182 90.8018 81.6733C90.0727 82.0237 89.2583 82.1989 88.3587 82.1989C87.388 82.1989 86.531 82.0118 85.7876 81.6378C85.0443 81.259 84.4453 80.7453 83.9908 80.0966C83.541 79.4432 83.2687 78.7093 83.174 77.8949H86.2067C86.325 78.4252 86.5736 78.8371 86.9524 79.1307C87.3312 79.4195 87.8 79.5639 88.3587 79.5639C89.3056 79.5639 90.0253 79.152 90.5178 78.3281C91.0102 77.4995 91.2588 76.3655 91.2635 74.9261H91.1641C90.9463 75.3523 90.6527 75.7192 90.2834 76.027C89.9141 76.33 89.4903 76.5644 89.0121 76.7301C88.5386 76.8958 88.0343 76.9787 87.4993 76.9787C86.6423 76.9787 85.8776 76.7775 85.2053 76.375C84.5329 75.9725 84.0026 75.4186 83.6143 74.7131C83.2261 74.0076 83.032 73.2027 83.032 72.2983C83.0272 71.3229 83.2521 70.4541 83.7067 69.6918C84.1612 68.9295 84.7957 68.3329 85.6101 67.902C86.4292 67.4664 87.3809 67.2509 88.4652 67.2557ZM88.4865 69.6705C88.0083 69.6705 87.5821 69.7841 87.2081 70.0114C86.8388 70.2386 86.5452 70.544 86.3274 70.9276C86.1143 71.3111 86.0102 71.7396 86.0149 72.2131C86.0149 72.6913 86.1191 73.1222 86.3274 73.5057C86.5405 73.8845 86.8293 74.1875 87.1939 74.4148C87.5632 74.6373 87.9846 74.7486 88.4581 74.7486C88.8132 74.7486 89.1423 74.6823 89.4453 74.5497C89.7483 74.4171 90.0111 74.2348 90.2337 74.0028C90.4609 73.7661 90.6385 73.4938 90.7663 73.1861C90.8942 72.8783 90.9581 72.5516 90.9581 72.206C90.9534 71.7467 90.8445 71.3253 90.6314 70.9418C90.4183 70.5582 90.1248 70.2505 89.7507 70.0185C89.3767 69.7865 88.9553 69.6705 88.4865 69.6705ZM101.782 82.1989C100.721 82.1989 99.7768 82.0166 98.9482 81.652C98.1243 81.2827 97.4732 80.776 96.995 80.1321C96.5215 79.4834 96.2777 78.7353 96.2635 77.8878H99.3601C99.379 78.2429 99.495 78.5554 99.7081 78.8253C99.9259 79.0904 100.215 79.2964 100.575 79.4432C100.934 79.59 101.339 79.6634 101.789 79.6634C102.258 79.6634 102.672 79.5805 103.032 79.4148C103.392 79.2491 103.674 79.0194 103.877 78.7259C104.081 78.4323 104.183 78.0937 104.183 77.7102C104.183 77.322 104.074 76.9787 103.856 76.6804C103.643 76.3774 103.335 76.1406 102.933 75.9702C102.535 75.7997 102.061 75.7145 101.512 75.7145H100.156V73.456H101.512C101.976 73.456 102.386 73.3755 102.741 73.2145C103.101 73.0535 103.38 72.831 103.579 72.5469C103.778 72.258 103.877 71.9219 103.877 71.5384C103.877 71.1738 103.79 70.8542 103.614 70.5795C103.444 70.3002 103.202 70.0824 102.89 69.9261C102.582 69.7699 102.222 69.6918 101.81 69.6918C101.394 69.6918 101.013 69.7675 100.667 69.919C100.321 70.0658 100.044 70.2765 99.8359 70.5511C99.6276 70.8258 99.5163 71.1477 99.5021 71.517H96.5547C96.5689 70.679 96.808 69.9403 97.272 69.3011C97.736 68.6619 98.361 68.1624 99.147 67.8026C99.9377 67.438 100.83 67.2557 101.825 67.2557C102.828 67.2557 103.707 67.438 104.46 67.8026C105.212 68.1671 105.797 68.6596 106.214 69.2798C106.635 69.8954 106.844 70.5866 106.839 71.3537C106.844 72.1681 106.59 72.8475 106.079 73.392C105.572 73.9366 104.912 74.2822 104.097 74.429V74.5426C105.167 74.6799 105.982 75.0516 106.54 75.6577C107.104 76.259 107.383 77.0118 107.379 77.9162C107.383 78.7448 107.144 79.4811 106.661 80.125C106.183 80.7689 105.522 81.2756 104.68 81.6449C103.837 82.0142 102.871 82.1989 101.782 82.1989ZM114.966 82.1989C113.905 82.1989 112.96 82.0166 112.132 81.652C111.308 81.2827 110.657 80.776 110.179 80.1321C109.705 79.4834 109.461 78.7353 109.447 77.8878H112.544C112.563 78.2429 112.679 78.5554 112.892 78.8253C113.109 79.0904 113.398 79.2964 113.758 79.4432C114.118 79.59 114.523 79.6634 114.973 79.6634C115.441 79.6634 115.856 79.5805 116.216 79.4148C116.575 79.2491 116.857 79.0194 117.061 78.7259C117.264 78.4323 117.366 78.0937 117.366 77.7102C117.366 77.322 117.257 76.9787 117.039 76.6804C116.826 76.3774 116.519 76.1406 116.116 75.9702C115.718 75.7997 115.245 75.7145 114.696 75.7145H113.339V73.456H114.696C115.16 73.456 115.569 73.3755 115.924 73.2145C116.284 73.0535 116.564 72.831 116.762 72.5469C116.961 72.258 117.061 71.9219 117.061 71.5384C117.061 71.1738 116.973 70.8542 116.798 70.5795C116.627 70.3002 116.386 70.0824 116.074 69.9261C115.766 69.7699 115.406 69.6918 114.994 69.6918C114.577 69.6918 114.196 69.7675 113.85 69.919C113.505 70.0658 113.228 70.2765 113.02 70.5511C112.811 70.8258 112.7 71.1477 112.686 71.517H109.738C109.752 70.679 109.992 69.9403 110.456 69.3011C110.92 68.6619 111.545 68.1624 112.331 67.8026C113.121 67.438 114.014 67.2557 115.008 67.2557C116.012 67.2557 116.89 67.438 117.643 67.8026C118.396 68.1671 118.981 68.6596 119.397 69.2798C119.819 69.8954 120.027 70.5866 120.022 71.3537C120.027 72.1681 119.774 72.8475 119.262 73.392C118.756 73.9366 118.095 74.2822 117.281 74.429V74.5426C118.351 74.6799 119.165 75.0516 119.724 75.6577C120.288 76.259 120.567 77.0118 120.562 77.9162C120.567 78.7448 120.328 79.4811 119.845 80.125C119.367 80.7689 118.706 81.2756 117.863 81.6449C117.02 82.0142 116.055 82.1989 114.966 82.1989Z" fill="white"/>
<rect x="2.5" y="2.5" width="145" height="145" rx="72.5" stroke="black" stroke-width="5"/>
</svg>
