<svg width="150" height="150" viewBox="0 0 150 150" fill="none" xmlns="http://www.w3.org/2000/svg">
<rect x="2.5" y="2.5" width="145" height="145" rx="72.5" fill="white"/>
<path d="M39.7188 82L42.1051 67.4545H44.3778L41.9915 82H39.7188ZM33.206 78.392L33.5824 76.1193H44.946L44.5696 78.392H33.206ZM34.6051 82L36.9915 67.4545H39.2642L36.8778 82H34.6051ZM34.0369 73.3352L34.4205 71.0625H45.7841L45.4006 73.3352H34.0369ZM47.2525 82V67.4545H56.8832V69.9901H50.3278V73.456H56.244V75.9915H50.3278V82H47.2525ZM58.9517 82V67.4545H68.5824V69.9901H62.027V73.456H67.9432V75.9915H62.027V82H58.9517ZM70.6509 82V67.4545H80.2816V69.9901H73.7262V73.456H79.6424V75.9915H73.7262V82H70.6509ZM82.3501 82V67.4545H91.9808V69.9901H85.4254V73.456H91.3416V75.9915H85.4254V82H82.3501ZM94.0494 82V67.4545H103.68V69.9901H97.1246V73.456H103.041V75.9915H97.1246V82H94.0494ZM105.749 82V67.4545H115.379V69.9901H108.824V73.456H114.74V75.9915H108.824V82H105.749Z" fill="black"/>
<rect x="2.5" y="2.5" width="145" height="145" rx="72.5" stroke="black" stroke-width="5"/>
</svg>
