<svg width="150" height="150" viewBox="0 0 150 150" fill="none" xmlns="http://www.w3.org/2000/svg">
<rect x="2.5" y="2.5" width="145" height="145" rx="72.5" fill="#FFE378"/>
<path d="M38.2188 82L40.6051 67.4545H42.8778L40.4915 82H38.2188ZM31.706 78.392L32.0824 76.1193H43.446L43.0696 78.392H31.706ZM33.1051 82L35.4915 67.4545H37.7642L35.3778 82H33.1051ZM32.5369 73.3352L32.9205 71.0625H44.2841L43.9006 73.3352H32.5369ZM45.7525 82V67.4545H55.3832V69.9901H48.8278V73.456H54.744V75.9915H48.8278V82H45.7525ZM57.4517 82V67.4545H67.0824V69.9901H60.527V73.456H66.4432V75.9915H60.527V82H57.4517ZM69.1509 82V67.4545H78.9521V69.9901H72.2262V73.456H78.4478V75.9915H72.2262V79.4645H78.9805V82H69.1509ZM86.6882 82.1989C85.6276 82.1989 84.683 82.0166 83.8544 81.652C83.0305 81.2827 82.3795 80.776 81.9013 80.1321C81.4278 79.4834 81.1839 78.7353 81.1697 77.8878H84.2663C84.2853 78.2429 84.4013 78.5554 84.6143 78.8253C84.8321 79.0904 85.121 79.2964 85.4808 79.4432C85.8407 79.59 86.2455 79.6634 86.6953 79.6634C87.1641 79.6634 87.5784 79.5805 87.9382 79.4148C88.2981 79.2491 88.5798 79.0194 88.7834 78.7259C88.987 78.4323 89.0888 78.0937 89.0888 77.7102C89.0888 77.322 88.9799 76.9787 88.7621 76.6804C88.549 76.3774 88.2412 76.1406 87.8388 75.9702C87.4411 75.7997 86.9676 75.7145 86.4183 75.7145H85.0618V73.456H86.4183C86.8823 73.456 87.2919 73.3755 87.647 73.2145C88.0069 73.0535 88.2862 72.831 88.4851 72.5469C88.6839 72.258 88.7834 71.9219 88.7834 71.5384C88.7834 71.1738 88.6958 70.8542 88.5206 70.5795C88.3501 70.3002 88.1087 70.0824 87.7962 69.9261C87.4884 69.7699 87.1286 69.6918 86.7166 69.6918C86.3 69.6918 85.9188 69.7675 85.5732 69.919C85.2275 70.0658 84.9505 70.2765 84.7422 70.5511C84.5339 70.8258 84.4226 71.1477 84.4084 71.517H81.4609C81.4751 70.679 81.7143 69.9403 82.1783 69.3011C82.6423 68.6619 83.2673 68.1624 84.0533 67.8026C84.844 67.438 85.7365 67.2557 86.7308 67.2557C87.7346 67.2557 88.6129 67.438 89.3658 67.8026C90.1186 68.1671 90.7034 68.6596 91.12 69.2798C91.5414 69.8954 91.7498 70.5866 91.745 71.3537C91.7498 72.1681 91.4964 72.8475 90.9851 73.392C90.4785 73.9366 89.8179 74.2822 89.0036 74.429V74.5426C90.0736 74.6799 90.888 75.0516 91.4467 75.6577C92.0102 76.259 92.2895 77.0118 92.2848 77.9162C92.2895 78.7448 92.0504 79.4811 91.5675 80.125C91.0893 80.7689 90.4287 81.2756 89.5859 81.6449C88.7431 82.0142 87.7772 82.1989 86.6882 82.1989ZM95.0707 82L101.1 70.0682V69.9688H94.0763V67.4545H104.282V70.0043L98.2454 82H95.0707ZM111.523 82.1989C110.429 82.1989 109.456 82.0213 108.604 81.6662C107.757 81.3063 107.091 80.8163 106.608 80.196C106.125 79.5758 105.884 78.8726 105.884 78.0866C105.884 77.4806 106.021 76.9242 106.296 76.4176C106.575 75.9062 106.954 75.4825 107.432 75.1463C107.91 74.8054 108.445 74.5876 109.037 74.4929V74.3935C108.261 74.2372 107.631 73.8608 107.148 73.2642C106.665 72.6629 106.424 71.9645 106.424 71.169C106.424 70.4162 106.644 69.7462 107.084 69.1591C107.525 68.5672 108.128 68.1032 108.895 67.767C109.667 67.4261 110.543 67.2557 111.523 67.2557C112.503 67.2557 113.377 67.4261 114.144 67.767C114.916 68.108 115.522 68.5743 115.962 69.1662C116.402 69.7533 116.625 70.4209 116.63 71.169C116.625 71.9692 116.379 72.6676 115.891 73.2642C115.403 73.8608 114.778 74.2372 114.016 74.3935V74.4929C114.598 74.5876 115.126 74.8054 115.6 75.1463C116.078 75.4825 116.457 75.9062 116.736 76.4176C117.02 76.9242 117.165 77.4806 117.169 78.0866C117.165 78.8726 116.921 79.5758 116.438 80.196C115.955 80.8163 115.287 81.3063 114.435 81.6662C113.587 82.0213 112.617 82.1989 111.523 82.1989ZM111.523 79.9403C112.011 79.9403 112.437 79.8527 112.801 79.6776C113.166 79.4976 113.45 79.2514 113.654 78.9389C113.862 78.6217 113.966 78.2571 113.966 77.8452C113.966 77.4238 113.86 77.0521 113.647 76.7301C113.434 76.4034 113.145 76.1477 112.78 75.9631C112.416 75.7737 111.997 75.679 111.523 75.679C111.054 75.679 110.635 75.7737 110.266 75.9631C109.897 76.1477 109.605 76.4034 109.392 76.7301C109.184 77.0521 109.08 77.4238 109.08 77.8452C109.08 78.2571 109.182 78.6217 109.385 78.9389C109.589 79.2514 109.875 79.4976 110.245 79.6776C110.614 79.8527 111.04 79.9403 111.523 79.9403ZM111.523 73.4418C111.93 73.4418 112.292 73.3589 112.61 73.1932C112.927 73.0275 113.176 72.7978 113.355 72.5043C113.535 72.2107 113.625 71.8722 113.625 71.4886C113.625 71.1098 113.535 70.7784 113.355 70.4943C113.176 70.2055 112.929 69.9806 112.617 69.8196C112.304 69.6539 111.94 69.571 111.523 69.571C111.111 69.571 110.747 69.6539 110.429 69.8196C110.112 69.9806 109.864 70.2055 109.684 70.4943C109.508 70.7784 109.421 71.1098 109.421 71.4886C109.421 71.8722 109.511 72.2107 109.691 72.5043C109.871 72.7978 110.119 73.0275 110.436 73.1932C110.754 73.3589 111.116 73.4418 111.523 73.4418Z" fill="white"/>
<rect x="2.5" y="2.5" width="145" height="145" rx="72.5" stroke="black" stroke-width="5"/>
</svg>
